<svg width="24" height="16" viewBox="0 0 24 16" fill="none" xmlns="http://www.w3.org/2000/svg">
<path fill-rule="evenodd" clip-rule="evenodd" d="M24 8C24 7.76429 23.9097 7.53823 23.749 7.37155C23.5882 7.20487 23.3702 7.11124 23.1429 7.11124H2.92763L8.32214 1.51913C8.40183 1.4365 8.46504 1.3384 8.50817 1.23043C8.5513 1.12247 8.5735 1.00675 8.5735 0.889887C8.5735 0.773025 8.5513 0.657308 8.50817 0.549342C8.46504 0.441376 8.40183 0.343275 8.32214 0.260642C8.24246 0.178008 8.14785 0.11246 8.04373 0.0677387C7.93962 0.0230177 7.82802 0 7.71532 0C7.60263 0 7.49103 0.0230177 7.38692 0.0677387C7.2828 0.11246 7.1882 0.178008 7.10851 0.260642L0.251802 7.37075C0.171984 7.45331 0.108658 7.55139 0.0654494 7.65937C0.0222411 7.76734 0 7.8831 0 8C0 8.1169 0.0222411 8.23266 0.0654494 8.34063C0.108658 8.44861 0.171984 8.54669 0.251802 8.62924L7.10851 15.7394C7.1882 15.822 7.2828 15.8875 7.38692 15.9323C7.49103 15.977 7.60263 16 7.71532 16C7.82802 16 7.93962 15.977 8.04373 15.9323C8.14785 15.8875 8.24246 15.822 8.32214 15.7394C8.40183 15.6567 8.46504 15.5586 8.50817 15.4507C8.5513 15.3427 8.5735 15.227 8.5735 15.1101C8.5735 14.9933 8.5513 14.8775 8.50817 14.7696C8.46504 14.6616 8.40183 14.5635 8.32214 14.4809L2.92763 8.88876H23.1429C23.3702 8.88876 23.5882 8.79513 23.749 8.62845C23.9097 8.46178 24 8.23571 24 8Z" fill="#C81C1C"/>
</svg>
