<svg width="114" height="32" viewBox="0 0 114 32" fill="none" xmlns="http://www.w3.org/2000/svg">
<path fill-rule="evenodd" clip-rule="evenodd" d="M15.0587 0.0909212C13.2431 0.783271 11.7592 4.33315 11.022 9.748C10.9232 10.4741 10.8036 11.0927 10.7563 11.1228C10.7091 11.1527 10.4002 11.2041 10.07 11.2367C7.48785 11.4922 4.2359 12.3472 2.51112 13.224C1.55586 13.7096 1.12387 14.0216 0.61307 14.5946C-0.6686 16.0323 0.0815594 17.5924 2.65475 18.8409C4.4074 19.6912 6.83114 20.3301 9.84121 20.7353C10.3697 20.8064 10.8107 20.8744 10.8211 20.8864C10.8316 20.8984 10.9404 21.6269 11.0631 22.5051C12.3361 31.6225 15.8336 34.8306 18.3871 29.2231C19.2229 27.3879 20.0293 24.0589 20.254 21.5166L20.3109 20.8722L20.6996 20.8214C20.9134 20.7936 21.7184 20.6746 22.4887 20.5572C27.1827 19.8417 30.6221 18.2298 31.1075 16.5176C31.2805 15.9078 31.1937 15.434 30.8023 14.851C29.7552 13.2906 26.0581 11.8737 21.5467 11.3039L20.3401 11.1515L20.1869 9.9025C19.674 5.72001 18.4854 2.16806 17.1395 0.796219C16.4584 0.10197 15.7021 -0.154392 15.0587 0.0909212ZM40.1271 9.34921C38.9912 9.63112 38.021 10.4404 37.5239 11.5205C37.279 12.0528 37.2527 12.1926 37.2245 13.1161C37.1987 13.9598 37.223 14.2277 37.3705 14.7256C37.7414 15.9775 38.8549 17.0107 40.1674 17.3209C40.386 17.3726 42.0585 17.4091 44.265 17.4104C48.3849 17.4127 48.429 17.418 48.7434 17.9467C48.8683 18.1566 48.9132 18.3814 48.9125 18.7935C48.9114 19.4535 48.8039 19.7099 48.4163 19.9778L48.1313 20.1746H42.9659H37.8005V21.5557V22.9367L42.8732 22.936C45.8808 22.9357 48.1686 22.8998 48.493 22.8479C50.2075 22.5739 51.4949 21.2311 51.7115 19.491C51.962 17.4786 51.2114 15.9183 49.5997 15.1013L48.9655 14.7798L44.8735 14.7366C41.149 14.6973 40.7613 14.6798 40.5552 14.5412C40.2186 14.3149 40.068 14.0264 40.0189 13.5132C39.9596 12.892 40.1232 12.4222 40.4861 12.1719L40.7722 11.9745H45.8534H50.9346V10.5934V9.21231L45.7778 9.21948C41.6301 9.22526 40.5243 9.25064 40.1271 9.34921ZM55.0601 16.0745V22.9367H56.4914H57.9227V16.0745V9.21231H56.4914H55.0601V16.0745ZM64.6802 9.343C63.5322 9.59875 62.5324 10.4181 62.0229 11.5205L61.7534 12.1039V16.079V20.0542L62.0699 20.7106C62.6116 21.8343 63.6994 22.6525 64.9107 22.8474C65.2373 22.9 67.4861 22.9357 70.4885 22.936L75.519 22.9367V18.8367V14.7366H71.8145H68.11V16.0731V17.4097L70.4043 17.4326L72.6985 17.4556L72.7217 18.8151L72.7449 20.1746H69.0776C65.0833 20.1746 65.0111 20.1666 64.6963 19.69C64.5417 19.4558 64.5303 19.2493 64.5061 16.2468C64.4775 12.6742 64.4969 12.5095 64.9863 12.1719L65.2724 11.9745H70.3957H75.519V10.5934V9.21231L70.3622 9.21913C66.3583 9.22448 65.0879 9.25219 64.6802 9.343ZM79.3919 16.0745V22.9367H80.8232H82.2544V17.4556V11.9745H84.6118H86.9692V17.4556V22.9367H88.3584H89.7476V17.4514V11.966L91.859 11.9918L93.9705 12.0176L94.2585 12.34L94.5466 12.6625V17.7996V22.9367H95.9779H97.4092V17.7758C97.4092 12.0767 97.405 12.0237 96.8794 11.1234C96.35 10.2164 95.3248 9.5057 94.2575 9.30588C93.924 9.24339 91.3704 9.21231 86.5749 9.21231H79.3919V16.0745ZM101.198 10.5934V11.9745L105.807 11.9758C109.326 11.9767 110.466 12.0025 110.625 12.0849C110.739 12.1442 110.92 12.3259 111.027 12.4887C111.206 12.7605 111.22 12.8629 111.198 13.7391L111.175 14.6934L107.091 14.7366L103.008 14.7798L102.356 15.0991C100.903 15.8102 100.188 17.0295 100.188 18.7935C100.188 20.7377 101.068 22.0511 102.802 22.6927L103.345 22.8936L108.672 22.9193L114 22.9451L113.977 17.4794L113.953 12.0137L113.673 11.4305C113.157 10.357 112.076 9.52918 110.89 9.29992C110.618 9.24736 108.589 9.21231 105.817 9.21231H101.198V10.5934ZM111.217 18.7961V20.1797L107.422 20.1556L103.626 20.1314L103.338 19.809C103.062 19.4996 103.05 19.4594 103.05 18.814C103.05 18.0677 103.142 17.8556 103.586 17.578C103.835 17.4223 104.056 17.413 107.533 17.4128L111.217 17.4124V18.7961Z" fill="white"/>
</svg>
