<svg width="114" height="21" viewBox="0 0 114 21" fill="none" xmlns="http://www.w3.org/2000/svg">
<path fill-rule="evenodd" clip-rule="evenodd" d="M0.855 1.05474C0.162336 1.87562 0 2.25733 0 3.06514C0 5.08492 1.90084 6.59722 3.50778 5.85624C5.66648 4.86077 5.96106 2.45411 4.1366 0.718396C3.02374 -0.340439 1.93823 -0.22923 0.855 1.05474ZM16.3264 0.430385C16.1456 0.939583 16.1456 20.1007 16.3264 20.6099C16.4431 20.9388 16.9443 21 19.5184 21C21.1978 21 22.572 20.9046 22.572 20.7879C22.572 20.6713 23.1425 20.5123 23.8397 20.4343C25.4925 20.2499 27.6384 19.141 29.0907 17.7212C31.8486 15.0248 32.6179 9.64945 30.8026 5.76007C29.5224 3.01731 26.6698 0.924048 23.769 0.598802C23.1105 0.524827 22.572 0.368985 22.572 0.252351C22.572 0.135716 21.1978 0.0402876 19.5184 0.0402876C16.9443 0.0402876 16.4431 0.101441 16.3264 0.430385ZM38.8699 0.595104C38.8001 0.900129 38.7725 2.75889 38.8086 4.7254L38.874 8.30088L41.04 8.29989C42.9285 8.29891 43.3189 8.22296 44.0879 7.70686C45.0542 7.05859 45.818 5.57858 45.818 4.35552C45.818 2.58578 44.248 0.533457 42.8941 0.533457C42.6267 0.533457 42.408 0.422494 42.408 0.286872C42.408 0.144346 41.6875 0.0402876 40.7023 0.0402876C39.123 0.0402876 38.9873 0.0814673 38.8699 0.595104ZM47.3059 0.595104C47.2361 0.900129 47.2085 2.75889 47.2446 4.7254L47.31 8.30088H47.88H48.45L48.5154 4.7254C48.5905 0.628392 48.5106 0.0402876 47.88 0.0402876C47.6057 0.0402876 47.3836 0.254816 47.3059 0.595104ZM51.87 0.303394C51.7446 0.434577 51.3677 0.763274 51.0326 1.03378C50.2412 1.67268 50.0243 2.74015 50.4888 3.71169C50.8502 4.46723 51.4142 4.74537 53.4448 5.16876C54.6562 5.42126 55.0159 6.07447 54.2957 6.71361C53.637 7.29827 52.7489 7.32095 51.51 6.78488C50.7134 6.44015 50.5401 6.43078 50.3688 6.72323C50.0082 7.33944 50.1447 7.60206 51.0581 8.04764C51.7188 8.36968 52.3308 8.45623 53.3721 8.37486C54.6128 8.2777 54.868 8.16699 55.438 7.47729C56.6591 5.99901 56.0039 4.20141 54.1185 3.85791C51.7596 3.42812 51.0535 2.77812 52.0234 1.92888C52.5476 1.46974 53.0235 1.46407 54.8582 1.89436C55.4206 2.02628 55.5992 1.96809 55.7257 1.61177C55.8313 1.31365 55.7465 1.05992 55.4733 0.856484C55.2471 0.688066 54.938 0.435563 54.7866 0.295256C54.4416 -0.0243175 52.1773 -0.0179061 51.87 0.303394ZM57.2706 0.841688C57.3386 1.60487 57.3947 1.64901 58.446 1.76638L59.5497 1.88967L59.586 5.09528L59.622 8.30088H60.192H60.762L60.8256 5.03363L60.8892 1.76638H62.0092C63.2436 1.76638 63.4964 1.54421 63.2871 0.642695C63.1478 0.0422605 63.1371 0.0402876 60.1733 0.0402876H57.199L57.2706 0.841688ZM64.6339 0.595104C64.5641 0.900129 64.5365 2.75889 64.5726 4.7254L64.638 8.30088H65.208C65.7356 8.30088 65.7832 8.20372 65.8473 6.99349C65.8929 6.13365 66.0297 5.63924 66.2468 5.54899C66.9317 5.26468 67.7137 5.74281 68.4324 6.88499C69.291 8.24984 69.4778 8.4153 70.167 8.42047C70.8647 8.42565 70.8154 8.13591 69.879 6.72644L69.0781 5.52088L69.879 4.65463C70.9392 3.50801 70.9867 2.30665 70.0136 1.25422C69.6469 0.857716 69.1852 0.533457 68.9876 0.533457C68.7899 0.533457 68.628 0.422494 68.628 0.286872C68.628 0.141881 67.8314 0.0402876 66.6943 0.0402876C64.8785 0.0402876 64.7529 0.0740697 64.6339 0.595104ZM72.3859 0.595104C72.3161 0.900129 72.2885 2.75889 72.3246 4.7254L72.39 8.30088L73.017 8.3788L73.644 8.45697V4.24851V0.0402876H73.0783C72.6814 0.0402876 72.4748 0.205746 72.3859 0.595104ZM75.468 4.23223V8.42417H76.038C76.559 8.42417 76.608 8.33146 76.608 7.34783C76.608 6.31563 77.2546 4.97198 77.7512 4.97198C77.8602 4.97198 78.4379 5.66563 79.0351 6.51314C79.6322 7.3609 80.2282 8.13591 80.3593 8.23554C80.7218 8.51072 81.624 8.45894 81.624 8.16304C81.624 8.01928 81.0084 7.02727 80.256 5.95832C79.5036 4.88938 78.888 3.92153 78.888 3.80761C78.888 3.69369 79.5036 2.94161 80.256 2.13626C81.7432 0.544554 81.935 0.0402876 81.0533 0.0402876C80.6422 0.0402876 80.0519 0.530498 78.9443 1.79079C78.0982 2.75371 77.3718 3.64141 77.3301 3.76347C77.2881 3.88578 77.1087 3.98565 76.9311 3.98565C76.6794 3.98565 76.608 3.55042 76.608 2.01297C76.608 0.0730834 76.5984 0.0402876 76.038 0.0402876H75.468V4.23223ZM82.6329 0.642695C82.4234 1.54495 82.6764 1.76638 83.9174 1.76638H85.044V5.09528V8.42417H85.614C85.9275 8.42417 86.1911 8.28559 86.1995 8.11594C86.2082 7.94654 86.2337 6.47615 86.2565 4.84869L86.298 1.88967L87.324 1.81249C88.5593 1.71953 88.7962 1.5087 88.6026 0.674751L88.4553 0.0402876H85.614C82.7911 0.0402876 82.7718 0.0442331 82.6329 0.642695ZM91.428 0.286872C91.428 0.422494 91.2832 0.533457 91.1063 0.533457C90.6172 0.533457 89.604 1.9708 89.604 2.66444C89.604 4.00266 90.4585 4.76165 92.3115 5.06889C94.1435 5.37268 94.6638 6.04488 93.6572 6.80732C92.9921 7.31134 91.8712 7.29432 90.8441 6.76466C90.05 6.35508 90.0041 6.35656 89.7036 6.8009C89.3112 7.38112 89.4592 7.64422 90.4225 8.07945C93.0949 9.28697 96.1727 7.4869 95.3058 5.22325C94.998 4.41939 94.0662 3.8769 92.5794 3.6355C90.9072 3.36425 90.4834 2.6171 91.5662 1.84997C92.0844 1.48256 92.3236 1.46604 93.4403 1.71928C94.5379 1.96833 94.7705 1.95502 95.0694 1.62632C95.3824 1.28209 95.3731 1.20688 94.9754 0.888293C94.7319 0.692998 94.3986 0.533457 94.2345 0.533457C94.0703 0.533457 93.936 0.422494 93.936 0.286872C93.936 0.151251 93.3717 0.0402876 92.682 0.0402876C91.9923 0.0402876 91.428 0.151251 91.428 0.286872ZM43.4404 2.16338C44.2281 2.72165 44.5929 4.15899 44.2404 5.31449C43.8914 6.4584 43.0421 6.94466 41.3934 6.94466H40.128V4.35552V1.76638H41.504C42.3852 1.76638 43.0815 1.90915 43.4404 2.16338ZM69.1508 2.28298C69.2764 2.49948 69.3118 2.967 69.2292 3.32208C69.1143 3.81747 68.8633 4.03102 68.1524 4.2379C67.6424 4.38635 66.9508 4.47364 66.6157 4.43172C66.0507 4.36119 66.001 4.2596 65.9367 3.04936L65.8674 1.7432L67.395 1.81644C68.4912 1.86896 68.9869 2.00064 69.1508 2.28298ZM24.4674 4.81442C25.5515 5.30586 26.6347 6.38689 27.1888 7.53055C27.8885 8.9748 27.8885 12.0655 27.1888 13.5097C26.0697 15.8193 24.2325 16.7605 21.147 16.6046L20.292 16.5615V10.5613C20.292 7.26103 20.3691 4.47512 20.463 4.37007C20.7051 4.09957 23.5982 4.42062 24.4674 4.81442ZM6.70753 8.75681C6.64278 8.93978 6.62021 9.85535 6.65783 10.7911L6.726 12.4928L9.975 12.5611L13.224 12.6297V10.5268V8.42417H10.0249C7.55045 8.42417 6.79896 8.49963 6.70753 8.75681ZM78.331 10.945C77.9124 11.5911 77.8866 11.9747 78.2227 12.5579C78.4183 12.8972 78.1817 13.7516 77.0827 16.6769C76.32 18.7068 75.696 20.51 75.696 20.6839C75.696 20.8577 75.932 21 76.2206 21C76.6164 21 76.8675 20.7278 77.2437 19.8904L77.7421 18.7807L79.398 18.7817L81.054 18.7825L81.4756 19.8914C81.8101 20.7707 82.0105 21 82.4446 21C82.8139 21 82.992 20.8597 82.992 20.5685C82.992 20.331 82.3867 18.528 81.647 16.5615C80.6805 13.9923 80.3597 12.8691 80.507 12.5707C81.2804 11.0037 79.2669 9.49953 78.331 10.945ZM38.68 12.9791C38.4014 13.7645 38.7705 14.0956 39.9244 14.0956H41.04V17.1577C41.04 20.5312 41.1234 21 41.724 21C42.3243 21 42.408 20.5312 42.408 17.1705V14.1215L43.605 14.0468C44.7115 13.978 44.802 13.9257 44.802 13.3559V12.7394L41.8079 12.6709C39.2926 12.6132 38.7924 12.6625 38.68 12.9791ZM47.4277 13.1709C45.6244 17.8321 44.688 20.3939 44.688 20.6659C44.688 20.8538 44.9265 21 45.2329 21C45.6552 21 45.8861 20.7505 46.2601 19.8904L46.7423 18.7807H48.4201H50.098L50.4899 19.8904C50.805 20.7825 50.9897 21 51.4329 21C51.81 21 51.984 20.8609 51.984 20.5596C51.984 20.0556 49.5524 13.3909 49.1981 12.9243C48.7929 12.3905 47.6689 12.5471 47.4277 13.1709ZM53.2857 12.77C53.0889 12.9828 53.0679 20.062 53.2624 20.6099C53.4726 21.2022 54.2362 21.089 54.3739 20.4452C54.4391 20.1399 54.518 18.8394 54.5492 17.5547L54.606 15.2193L56.658 18.096C58.1856 20.2376 58.8425 20.9763 59.2285 20.9864L59.7469 21L59.6845 16.8697L59.622 12.7394H59.052H58.482L58.4617 15.3285C58.4505 16.7526 58.3675 17.895 58.2777 17.8674C58.1877 17.8395 57.2713 16.6744 56.2417 15.2782C54.5159 12.9382 53.7394 12.2793 53.2857 12.77ZM61.56 16.7787V21H63.384C64.4481 21 65.208 20.8972 65.208 20.7534C65.208 20.6178 65.3877 20.5063 65.607 20.5058C66.2545 20.5044 67.4577 19.5861 67.9451 18.7213C68.5861 17.5846 68.5587 15.656 67.8863 14.577C67.0306 13.2037 66.0824 12.7712 63.6788 12.6575L61.56 12.5572V16.7787ZM69.0218 12.787C68.9638 12.8965 69.5801 14.7893 70.3914 16.993C71.7936 20.802 71.8971 21 72.4883 21C73.0092 21 73.1894 20.8101 73.5998 19.8287C74.5948 17.4497 76.1214 13.0089 76.0111 12.8156C75.8362 12.5096 75.0948 12.5786 74.8456 12.9243C74.7234 13.094 74.1837 14.481 73.646 16.0067C73.1084 17.5325 72.6059 18.779 72.5293 18.777C72.4527 18.7751 71.913 17.4159 71.3298 15.7564C70.3927 13.0891 70.2035 12.7305 69.6985 12.6637C69.384 12.622 69.0797 12.6775 69.0218 12.787ZM84.303 12.7559C84.2088 12.8597 84.132 14.7572 84.132 16.9725V21H84.702C85.2991 21 85.3023 20.9909 85.3568 19.1506C85.3849 18.2018 85.4175 18.1613 86.2127 18.0896C86.9888 18.0195 87.101 18.1061 88.0367 19.5003C88.7387 20.5458 89.1858 20.9877 89.547 20.9928C90.2923 21.0032 90.1934 20.3993 89.2128 18.9548C88.5867 18.0326 88.4487 17.6765 88.684 17.5917C89.4364 17.3205 90.06 16.2436 90.06 15.2154C90.06 14.3942 89.9218 14.0446 89.3719 13.475C88.7337 12.8136 88.5303 12.7547 86.5789 12.6642C85.4211 12.6107 84.3972 12.6519 84.303 12.7559ZM91.884 16.8081V21H93.708C94.7721 21 95.532 20.8972 95.532 20.7534C95.532 20.6178 95.7117 20.5063 95.931 20.5058C96.5785 20.5044 97.7817 19.5861 98.2691 18.7213C98.8074 17.7665 98.8743 15.8629 98.4037 14.8847C97.6123 13.2397 96.2817 12.6198 93.537 12.6176L91.884 12.6161V16.8081ZM100.479 12.7729C100.392 12.8674 100.32 14.7572 100.32 16.9725V21H103.07H105.821L105.749 20.1986L105.678 19.3972L103.683 19.3259L101.688 19.2547V18.278V17.3012H103.641H105.594L105.522 16.6359C105.451 15.9766 105.434 15.9704 103.626 15.9578L101.802 15.945L101.732 15.0302L101.662 14.1154L103.67 14.0438C105.642 13.9736 105.678 13.9615 105.678 13.3559C105.678 12.7397 105.677 12.7394 103.158 12.6701C101.772 12.6321 100.566 12.6783 100.479 12.7729ZM107.54 12.7806C107.35 12.986 107.338 20.078 107.526 20.6099C107.705 21.1144 108.439 21.1144 108.618 20.6099C108.694 20.3954 108.756 19.1748 108.756 17.8975C108.756 16.6202 108.835 15.5751 108.932 15.5751C109.028 15.5751 109.977 16.791 111.041 18.2775C112.466 20.2699 113.109 20.9822 113.487 20.9899C113.999 21 114 20.9946 114 16.7918V12.5833L113.373 12.6615L112.746 12.7394L112.632 15.404L112.518 18.0686L110.526 15.3424C108.673 12.8065 108.028 12.2531 107.54 12.7806ZM88.3657 14.3563C88.8598 14.7999 88.7761 16.0022 88.2292 16.3188C87.9747 16.4663 87.2308 16.5533 86.5762 16.5124C85.4539 16.4424 85.3817 16.3977 85.3112 15.7302C85.27 15.3409 85.3012 14.7434 85.3803 14.4026C85.5176 13.8111 85.5819 13.7891 86.7818 13.923C87.4736 14.0004 88.1863 14.1952 88.3657 14.3563ZM66.3656 14.8164C66.9112 15.4065 67.032 15.7453 67.032 16.6848C67.032 17.6287 66.9116 17.9623 66.3544 18.565C65.729 19.2416 65.5692 19.2922 64.2732 19.2241L62.8694 19.1506L62.8844 16.7464C62.8927 15.4242 62.9059 14.2867 62.9139 14.2189C62.9216 14.1511 63.5516 14.0956 64.3136 14.0956C65.5409 14.0956 65.7753 14.178 66.3656 14.8164ZM96.6896 14.8164C97.2352 15.4065 97.356 15.7453 97.356 16.6848C97.356 17.6287 97.2356 17.9623 96.6784 18.565C96.0507 19.2441 95.8959 19.2924 94.5694 19.2241C93.7821 19.1837 93.1638 19.0673 93.195 18.9657C93.2262 18.8641 93.252 17.7266 93.252 16.4382V14.0956H94.6376C95.8649 14.0956 96.0993 14.178 96.6896 14.8164ZM0.767904 15.9625C0.138852 16.684 0 17.0369 0 17.9145C0 18.8148 0.138624 19.1469 0.868224 19.9929C1.61743 20.8617 1.86778 21 2.69222 21C3.21799 21 3.648 20.8964 3.648 20.7699C3.648 20.6434 3.84636 20.4721 4.08872 20.3887C4.33109 20.3056 4.74992 19.7449 5.01942 19.1427C5.44122 18.2005 5.47291 17.9285 5.24765 17.1895C4.85024 15.8873 3.8288 15.082 2.57435 15.082C1.67899 15.082 1.43002 15.2033 0.767904 15.9625Z" fill="white"/>
</svg>
