<svg width="114" height="30" viewBox="0 0 114 30" fill="none" xmlns="http://www.w3.org/2000/svg">
<path fill-rule="evenodd" clip-rule="evenodd" d="M0.515064 0.212414L0 0.409497V14.9995C0 29.2437 0.0105302 29.5948 0.446618 29.8169C0.753825 29.9733 16.6212 30.0266 51.3455 29.9879C95.7935 29.9382 101.848 29.8925 102.218 29.6048C102.45 29.4251 105.195 26.3615 108.32 22.7966C113.779 16.5684 114.001 16.2792 114 15.3924C113.999 14.5392 113.609 13.9475 108.809 7.52845C104.667 1.98725 103.468 0.526876 102.866 0.287545C102.233 0.0360192 93.9812 -0.00993058 51.571 0.00161131C22.0093 0.00966885 0.81632 0.097213 0.515064 0.212414ZM20.3672 8.04217C20.5989 8.1602 21.8147 9.65455 23.0687 11.3632C25.3966 14.5348 25.8677 15.2545 25.8677 15.6393C25.8677 15.87 21.6737 20.907 20.4611 22.1324L19.7473 22.8539H14.5028C10.1269 22.8539 9.17433 22.7977 8.74991 22.5148C7.74382 21.8445 8.04576 21.1969 11.0109 17.6624L13.7811 14.3608H17.8785C20.1321 14.3608 21.9676 14.2872 21.9571 14.1975C21.9465 14.1078 21.35 13.2502 20.6314 12.292L19.325 10.5498L15.3427 10.4409L11.3607 10.332L10.7346 9.35206C10.3901 8.81308 10.1003 8.2497 10.0905 8.09988C10.0678 7.75928 19.7052 7.70506 20.3672 8.04217ZM57.6426 8.97096L57.7124 10.0054H58.7299H59.7475V10.9853V11.9653H58.7173H57.6872V14.6609C57.6872 17.6274 57.7451 17.763 59.0616 17.8817C59.8415 17.9523 59.8638 17.9804 59.9317 18.9884L60.0016 20.0229L58.6727 20.0196C57.0797 20.0159 56.3867 19.7173 55.691 18.7354C55.1847 18.0205 55.1691 17.8465 55.1691 12.9017V7.8048L56.3709 7.87078L57.5728 7.93655L57.6426 8.97096ZM34.3376 10.3869C35.7455 11.0559 35.9394 11.7543 35.9396 16.1574L35.94 20.0229H32.8277C29.2442 20.0229 28.6245 19.819 28.049 18.4508C27.5884 17.3554 27.6072 16.9103 28.1575 15.8839C28.7056 14.8619 29.0837 14.6507 31.4759 14.03C33.3611 13.5407 33.7715 13.1729 33.1839 12.4993C32.9785 12.2641 32.3586 12.1831 30.7615 12.1831H28.6147V11.0942V10.0054L31.0756 10.0058C32.9598 10.006 33.7241 10.0953 34.3376 10.3869ZM43.1532 10.319C44.5467 10.8728 44.8665 11.6901 44.8633 14.6875C44.8607 16.9943 44.7998 17.4024 44.3443 18.1674C43.631 19.3656 42.3539 20.0148 40.7011 20.0194L39.3956 20.0229L39.3276 21.3839L39.2593 22.745L38.0575 22.8108L36.8557 22.8768V16.441V10.0054H39.6101C41.4895 10.0054 42.6151 10.1049 43.1532 10.319ZM52.6075 10.4466C53.743 11.1051 54.0245 11.9915 54.0245 14.907C54.0245 17.0137 53.9478 17.5697 53.5575 18.2979C52.8472 19.6224 51.975 20.0213 49.7896 20.0213C46.4863 20.0213 45.7361 19.1594 45.5972 15.2045C45.4474 10.9475 46.2173 10.0191 49.904 10.0113C51.4579 10.0078 52.0025 10.0955 52.6075 10.4466ZM66.5131 10.3523C68.1096 11.0729 68.6244 13.3153 67.5043 14.6698C66.8885 15.4146 66.1741 15.7419 64.1541 16.2051C63.2412 16.4142 62.4945 16.6729 62.4945 16.7798C62.4945 16.8865 62.7005 17.1701 62.9523 17.4096C63.3458 17.784 63.7153 17.8451 65.5849 17.8451H67.7596V18.9523V20.0592L65.0698 19.9867C62.7161 19.9231 62.2896 19.8526 61.6557 19.4225C60.3953 18.5673 59.9764 17.3944 59.9764 14.7206C59.9764 12.0036 60.2781 11.0934 61.3934 10.4466C62.3695 9.88038 65.3463 9.8255 66.5131 10.3523ZM74.6271 10.3869C76.0349 11.0559 76.2288 11.7543 76.2291 16.1574L76.2295 20.0229H73.1172C69.5337 20.0229 68.914 19.819 68.3385 18.4508C67.8923 17.3898 67.8978 16.895 68.366 15.9562C68.8659 14.954 69.508 14.5862 71.7363 14.0254C73.6531 13.5431 74.0669 13.1796 73.4734 12.4993C73.268 12.2641 72.6481 12.1831 71.0509 12.1831H68.9042V11.0942V10.0054L71.365 10.0058C73.2493 10.006 74.0136 10.0953 74.6271 10.3869ZM87.332 11.0942V12.0742L85.3862 12.1289C82.7411 12.2031 82.4103 12.2933 82.4103 12.9403C82.4103 13.4871 82.3986 13.4821 86.116 14.4943C86.3287 14.552 86.8181 14.9412 87.2034 15.3589C88.4036 16.6592 88.0648 18.7994 86.5217 19.6666C86.029 19.9436 85.2713 20.0229 83.119 20.0229H80.35V18.9414V17.86L82.8109 17.7981C85.1427 17.7395 85.2754 17.7112 85.343 17.2611C85.4274 16.6955 85.0538 16.481 83.326 16.1025C81.602 15.7249 80.8662 15.3332 80.3409 14.5135C79.8327 13.7208 79.7601 12.3351 80.185 11.5363C80.3425 11.2406 80.8244 10.7719 81.2559 10.4954C81.9804 10.0309 82.2439 9.99689 84.6864 10.0533L87.332 10.1143V11.0942ZM94.9399 10.3708C96.5203 11.0842 97.0129 13.312 95.8901 14.6698C95.2743 15.4146 94.5599 15.7419 92.5399 16.2051C91.627 16.4142 90.8802 16.6729 90.8802 16.7798C90.8802 16.8865 91.0863 17.1701 91.3381 17.4096C91.7316 17.784 92.1011 17.8451 93.9706 17.8451H96.1453V18.9523V20.0592L93.4556 19.9867C91.1018 19.9231 90.6754 19.8526 90.0415 19.4225C88.7811 18.5673 88.3622 17.3944 88.3622 14.7206C88.3622 12.0036 88.6639 11.0934 89.7792 10.4466C90.7747 9.86905 93.7321 9.82572 94.9399 10.3708ZM39.3738 15.0141V17.8451H40.4039C42.0741 17.8451 42.3497 17.4194 42.3497 14.8399C42.3497 13.4703 42.2513 12.6121 42.075 12.4444C41.924 12.3007 41.2544 12.1831 40.5871 12.1831H39.3738V15.0141ZM48.4323 12.5252C47.9131 13.0191 47.9131 17.0091 48.4323 17.503C48.9806 18.0244 50.9628 17.9691 51.2695 17.424C51.6069 16.824 51.5763 12.7722 51.2317 12.4444C50.8256 12.0581 48.864 12.1147 48.4323 12.5252ZM62.7692 12.4444C62.3864 12.8085 62.4116 14.143 62.8015 14.143C63.4166 14.143 65.3195 13.5041 65.4912 13.2402C65.8728 12.6526 65.2701 12.1831 64.1347 12.1831C63.5347 12.1831 62.9203 12.3007 62.7692 12.4444ZM91.1549 12.4444C90.7722 12.8085 90.7974 14.143 91.1872 14.143C91.8023 14.143 93.7053 13.5041 93.877 13.2402C94.2586 12.6526 93.6559 12.1831 92.5204 12.1831C91.9204 12.1831 91.306 12.3007 91.1549 12.4444ZM79.3911 14.3693C80.1248 15.0196 80.0682 16.1574 79.2725 16.7528C77.6742 17.9488 75.8065 15.8323 77.2494 14.4599C77.9334 13.809 78.7215 13.7757 79.3911 14.3693ZM31.668 16.1354C30.4696 16.3913 30.0912 16.7789 30.4382 17.3957C30.6502 17.7726 30.9112 17.8451 32.0565 17.8451H33.422V16.8652C33.422 15.7785 33.3936 15.7667 31.668 16.1354ZM71.9021 16.1748C69.804 16.7049 70.1206 17.8451 72.3659 17.8451H73.7114V16.8652C73.7114 15.7637 73.6391 15.736 71.9021 16.1748ZM13.735 18.3367C13.0426 19.1927 12.4417 19.9715 12.3998 20.0669C12.3577 20.1625 13.7998 20.2352 15.6046 20.2287L18.8857 20.2165L20.3242 18.4865L21.7627 16.7563L18.3784 16.7683L14.9941 16.7802L13.735 18.3367Z" fill="white"/>
</svg>
