<svg width="226" height="56" viewBox="0 0 226 56" fill="none" xmlns="http://www.w3.org/2000/svg">
<path fill-rule="evenodd" clip-rule="evenodd" d="M42.3778 15.844C38.6962 17.1381 36.468 21.88 37.9341 25.3006C38.8638 27.4678 40.349 28.2872 46.6634 30.1133C52.7733 31.8797 54.0508 33.9988 51.0427 37.3776C47.8989 40.909 41.6692 38.873 39.4149 33.577C38.7669 32.0533 38.0208 30.8059 37.7583 30.8047C37.4958 30.8035 37.2804 33.0186 37.2804 35.7276C37.2804 40.7293 37.7806 41.6214 39.3614 39.4407C40.1636 38.3337 40.3592 38.3097 41.617 39.1605C43.9688 40.7527 48.7552 40.9164 51.1077 39.485C53.8342 37.8276 55.3545 34.8921 54.897 32.1696C54.2936 28.5741 52.4751 27.3767 44.4773 25.3062C41.2493 24.4707 39.8291 23.2209 39.8291 21.2157C39.8291 18.9445 41.9649 17.2575 44.8405 17.2575C47.9352 17.2575 50.187 18.91 51.5378 22.1712C53.0613 25.851 53.8469 25.2267 53.8469 20.3359C53.8469 15.9819 53.2193 15.0319 51.4626 16.7293C50.9178 17.2557 50.1832 17.1787 48.531 16.4215C46.3289 15.4118 44.1803 15.2098 42.3778 15.844ZM62.968 16.3119C60.5506 17.3277 58.9443 20.0465 58.9443 23.123C58.9443 26.4242 61.3879 28.4762 66.909 29.8129C71.9241 31.0263 73.5993 32.1561 73.5993 34.3245C73.5993 37.8313 70.3771 39.8224 66.4132 38.7653C63.827 38.0751 61.902 36.2084 60.548 33.0777C59.9956 31.799 59.2648 30.9186 58.9252 31.1218C58.1593 31.5792 58.1 39.8409 58.8589 40.294C59.1628 40.4756 59.8911 40.1117 60.4773 39.4856C61.514 38.3786 61.607 38.3793 63.883 39.5004C70.063 42.5449 76.148 39.147 76.148 32.6517C76.148 29.1873 74.3301 27.5921 68.7982 26.2001C62.7125 24.6689 61.493 23.8575 61.493 21.3406C61.493 15.2529 70.6912 16.1912 73.0602 22.5209C74.2811 25.7839 74.8736 25.0697 74.8736 20.3359C74.8736 17.0624 74.6602 16.0262 73.986 16.0262C73.498 16.0262 72.9417 16.4202 72.7506 16.9023C72.4606 17.6325 72.0006 17.5808 69.9986 16.5945C67.181 15.2061 65.7366 15.1483 62.968 16.3119ZM96.2189 16.5741C94.8172 17.199 93.0388 18.3744 92.2672 19.1858C87.5228 24.1721 87.9331 33.1331 93.1191 37.8079C96.8128 41.1362 102.559 41.4385 105.636 38.4655L107.232 36.9238L107.905 38.7881C109.077 42.0376 109.859 40.8666 110.052 35.5737C110.224 30.8379 110.334 30.4809 111.67 30.2974C112.459 30.1896 113.104 29.843 113.104 29.5278C113.104 29.2132 110.667 28.9552 107.688 28.9552C104.709 28.9552 102.272 29.2138 102.272 29.5303C102.272 29.8461 103.061 30.1927 104.024 30.2998C105.576 30.4722 105.798 30.7788 105.966 32.9903C106.256 36.8032 104.348 38.8059 100.426 38.8059C95.4027 38.8059 93.3383 35.5663 93.3657 27.7282C93.3816 23.2443 94.9866 19.0048 97.0785 17.9231C99.1098 16.8727 102.584 17.1406 104.351 18.4839C105.239 19.1587 106.496 20.9583 107.145 22.4833C107.794 24.0089 108.552 25.2575 108.83 25.2588C109.652 25.2624 109.059 15.8477 108.22 15.5798C107.812 15.4493 107.297 15.8932 107.076 16.5655C106.678 17.7765 106.649 17.7765 103.996 16.6129C100.658 15.1489 99.4284 15.1427 96.2189 16.5741ZM147.167 16.568C139.309 20.0163 137.403 30.4956 143.455 36.9681C147.303 41.0845 152.787 41.7168 157.652 38.6058C160.54 36.7594 162.295 33.4625 162.672 29.1781C163.17 23.5041 160.465 18.7462 155.502 16.568C152.258 15.1439 150.411 15.1439 147.167 16.568ZM12.4306 16.6419C12.4306 16.9805 12.9467 17.2575 13.5775 17.2575C15.9542 17.2575 16.2537 18.4378 16.2537 27.7965C16.2537 32.7804 16.0797 37.2963 15.8669 37.8319C15.6541 38.3676 14.7939 38.8059 13.9554 38.8059C13.1169 38.8059 12.4306 39.083 12.4306 39.4216C12.4306 39.8064 16.2307 40.0373 22.5572 40.0373C34.092 40.0373 33.4573 40.3629 33.4573 34.4458C33.4573 30.3066 32.5468 29.6719 31.5815 33.1375C30.3874 37.4213 27.7871 39.083 22.8835 38.6951L20.3953 38.4981L20.2105 33.4188C20.0283 28.4264 20.0512 28.3396 21.5454 28.3396C23.2269 28.3396 24.9211 29.8572 25.2678 31.6746C25.3914 32.3242 25.8514 32.9706 26.2891 33.111C26.8875 33.3037 27.0856 31.9652 27.0856 27.7239C27.0856 23.4826 26.8875 22.1441 26.2891 22.3368C25.8514 22.4772 25.3914 23.1236 25.2678 23.7731C24.9211 25.5912 23.2269 27.1082 21.5441 27.1082C20.0557 27.1082 20.027 27.006 20.2092 22.3368L20.3953 17.5654L24.0074 17.5783C28.3045 17.5943 29.944 18.7216 30.9577 22.359C32.0052 26.117 33.0591 24.3617 32.5086 19.7762L32.0581 16.0262H22.2444C16.1269 16.0262 12.4306 16.2583 12.4306 16.6419ZM114.378 16.5649C114.378 16.861 115.246 17.2711 116.305 17.4761L118.233 17.8486L117.883 38.4981L116.131 38.6926C115.167 38.7998 114.378 39.1464 114.378 39.4622C114.378 39.7787 116.959 40.0373 120.113 40.0373C123.267 40.0373 125.848 39.7787 125.848 39.4622C125.848 39.1464 125.059 38.7998 124.095 38.6926C122.359 38.4999 122.341 38.4519 122.158 33.4188L121.973 28.3396H123.939C126.914 28.3396 128.77 30.5135 129.301 34.6225C129.788 38.394 130.562 39.7122 132.635 40.3051C135.034 40.9922 139.242 35.9264 136.998 35.0522C136.648 34.9155 136.267 35.4438 136.153 36.225C135.754 38.9426 133.944 37.4705 132.712 33.4262C131.827 30.5221 131.13 29.3813 129.847 28.7317L128.152 27.8735L130.106 27.4592C132.928 26.8601 134.895 24.5791 134.895 21.9071C134.895 17.2877 132.142 16.0262 122.056 16.0262C117.833 16.0262 114.378 16.2688 114.378 16.5649ZM165.352 16.5649C165.352 16.861 166.212 17.2698 167.264 17.473L169.175 17.8424L169.185 26.3232C169.191 31.8279 169.47 35.3237 169.981 36.2841C172.117 40.2983 178.416 41.8055 183.372 39.4868C187.32 37.6405 187.857 36.1912 188.16 26.5695L188.419 18.335L190.266 17.6614C193.364 16.5317 192.359 16.0262 187.016 16.0262C181.64 16.0262 180.669 16.5317 183.83 17.6848L185.742 18.3817V26.6101C185.742 35.9634 185.318 37.0944 181.387 38.2321C178.28 39.1316 174.564 37.779 173.632 35.4093C173.283 34.5246 172.998 30.21 172.998 25.8215V17.8424L174.91 17.473C178.649 16.7502 176.735 16.0262 171.087 16.0262C167.933 16.0262 165.352 16.2688 165.352 16.5649ZM193.388 16.6012C193.388 16.9171 194.177 17.2637 195.14 17.3708L196.892 17.5654V38.4981L195.14 38.6926C194.177 38.7998 193.388 39.1464 193.388 39.4622C193.388 39.7787 196.112 40.0373 199.441 40.0373C202.779 40.0373 205.494 39.7787 205.494 39.4604C205.494 39.1433 204.563 38.7973 203.423 38.6908L201.353 38.4981L200.978 29.5709H203.778C211.524 29.5709 215.816 25.3837 213.518 20.0699C212.104 16.7989 209.661 16.0262 200.736 16.0262C196.611 16.0262 193.388 16.278 193.388 16.6012ZM130.148 18.9562C130.587 19.506 130.945 20.9682 130.945 22.205C130.945 25.1916 129.26 26.5929 125.217 26.9685L122.024 27.2646V22.9999C122.024 20.4147 122.338 18.4279 122.821 17.9551C123.886 16.9115 129.085 17.622 130.148 18.9562ZM155.368 18.5166C157.432 20.0859 158.335 23.1224 158.34 28.5132C158.346 35.4296 155.906 39.086 151.283 39.086C146.768 39.086 144.371 35.2677 144.344 28.0317C144.329 23.9043 145.381 20.491 147.216 18.7179C149.171 16.8296 153.023 16.7342 155.368 18.5166ZM207.607 17.9656C209.578 18.9679 209.933 19.6796 209.945 22.6446C209.958 26.3128 208.368 27.7239 204.22 27.7239H201.034V23.4647C201.034 21.1221 201.208 18.7672 201.421 18.2315C201.883 17.0685 205.534 16.9115 207.607 17.9656Z" fill="white"/>
<path d="M0.339844 0.47168H1.69065V55.9434H0.339844V0.47168Z" fill="white"/>
<path d="M224.574 0.47168H225.925V55.9434H224.574V0.47168Z" fill="white"/>
</svg>
