<svg width="226" height="61" viewBox="0 0 226 61" fill="none" xmlns="http://www.w3.org/2000/svg">
<path fill-rule="evenodd" clip-rule="evenodd" d="M1.69473 1.14254L0.679688 1.53732V30.7633C0.679688 59.2965 0.700439 59.9997 1.55984 60.4446C2.16525 60.7578 33.4353 60.8647 101.867 60.7871C189.46 60.6876 201.392 60.596 202.122 60.0197C202.577 59.6599 207.988 53.523 214.146 46.382C224.904 33.9059 225.342 33.3265 225.34 31.5502C225.338 29.8411 224.569 28.6559 215.111 15.7976C206.947 4.69779 204.584 1.77245 203.398 1.29304C202.151 0.789193 185.889 0.697149 102.311 0.720269C44.0535 0.736409 2.28841 0.911773 1.69473 1.14254ZM40.8175 16.8267C41.2741 17.0631 43.67 20.0565 46.1413 23.4791C50.7288 29.8324 51.6572 31.2741 51.6572 32.0449C51.6572 32.5069 43.3921 42.5968 41.0025 45.0515L39.5959 46.4967H29.2605C20.6367 46.4967 18.7596 46.3841 17.9232 45.8175C15.9405 44.4748 16.5355 43.1774 22.379 36.0975L27.8381 29.4838H35.9129C40.3542 29.4838 43.9714 29.3364 43.9506 29.1566C43.9299 28.9769 42.7542 27.2591 41.3381 25.3397L38.7635 21.8498L30.9157 21.6317L23.0683 21.4136L21.8345 19.4506C21.1555 18.3709 20.5844 17.2424 20.565 16.9423C20.5203 16.26 39.5129 16.1514 40.8175 16.8267ZM114.276 18.6872L114.414 20.7593H116.419H118.424V22.7223V24.6853H116.394H114.364V30.0849C114.364 36.0272 114.478 36.299 117.073 36.5367C118.61 36.6781 118.653 36.7344 118.787 38.7537L118.925 40.8257L116.306 40.8192C113.167 40.8118 111.801 40.2137 110.43 38.2468C109.432 36.8146 109.402 36.4661 109.402 26.5611V16.3512L111.77 16.4834L114.139 16.6151L114.276 18.6872ZM68.349 21.5235C71.1235 22.8636 71.5056 24.2626 71.506 33.0827L71.5069 40.8257H65.3734C58.3114 40.8257 57.0902 40.4174 55.9561 37.6766C55.0484 35.4824 55.0854 34.5907 56.1699 32.5348C57.2499 30.4876 57.9952 30.0644 62.7095 28.8212C66.4245 27.841 67.2334 27.1042 66.0753 25.7549C65.6707 25.2838 64.449 25.1215 61.3015 25.1215H57.0708V22.9404V20.7593L61.9204 20.7601C65.6337 20.7606 67.14 20.9394 68.349 21.5235ZM85.722 21.3874C88.468 22.4968 89.0982 24.1339 89.0919 30.1382C89.087 34.7591 88.967 35.5766 88.0692 37.1091C86.6635 39.5092 84.1467 40.8096 80.8895 40.8188L78.3167 40.8257L78.1827 43.5522L78.0483 46.2786L75.6799 46.4103L73.3114 46.5425V33.6507V20.7593H78.7394C82.4432 20.7593 84.6614 20.9586 85.722 21.3874ZM104.354 21.6431C106.591 22.9622 107.146 24.7377 107.146 30.5779C107.146 34.7979 106.995 35.9116 106.226 37.3704C104.826 40.0235 103.107 40.8227 98.8002 40.8227C92.2904 40.8227 90.8121 39.0961 90.5382 31.1738C90.2432 22.6464 91.7604 20.7867 99.0258 20.771C102.088 20.7641 103.161 20.9399 104.354 21.6431ZM131.757 21.4542C134.904 22.8976 135.918 27.3895 133.711 30.1028C132.497 31.5947 131.089 32.2504 127.109 33.1782C125.309 33.597 123.838 34.1152 123.838 34.3294C123.838 34.5432 124.244 35.1111 124.74 35.591C125.516 36.3409 126.244 36.4635 129.928 36.4635H134.214V38.6812V40.8986L128.913 40.7533C124.275 40.6259 123.434 40.4846 122.185 39.6231C119.701 37.91 118.875 35.5605 118.875 30.2045C118.875 24.7621 119.47 22.9387 121.668 21.6431C123.592 20.5089 129.458 20.3989 131.757 21.4542ZM147.748 21.5235C150.522 22.8636 150.904 24.2626 150.905 33.0827L150.906 40.8257H144.772C137.71 40.8257 136.489 40.4174 135.355 37.6766C134.475 35.5513 134.486 34.5602 135.409 32.6796C136.394 30.6721 137.66 29.9353 142.051 28.812C145.828 27.8458 146.644 27.1177 145.474 25.7549C145.069 25.2838 143.848 25.1215 140.7 25.1215H136.469V22.9404V20.7593L141.319 20.7601C145.032 20.7606 146.539 20.9394 147.748 21.5235ZM172.785 22.9404V24.9034L168.951 25.0129C163.738 25.1617 163.086 25.3423 163.086 26.6383C163.086 27.7337 163.063 27.7236 170.389 29.7512C170.808 29.8668 171.773 30.6464 172.532 31.483C174.897 34.0878 174.229 38.375 171.188 40.1121C170.218 40.6669 168.724 40.8257 164.483 40.8257H159.026V38.6594V36.4931L163.876 36.3692C168.471 36.2519 168.732 36.1952 168.865 35.2935C169.032 34.1606 168.296 33.7309 164.891 32.9728C161.493 32.2163 160.043 31.4316 159.008 29.7896C158.006 28.2017 157.863 25.426 158.701 23.8259C159.011 23.2335 159.961 22.2948 160.811 21.7408C162.239 20.8103 162.758 20.7422 167.572 20.8552L172.785 20.9774V22.9404ZM187.778 21.4913C190.893 22.9203 191.864 27.3829 189.651 30.1028C188.437 31.5947 187.029 32.2504 183.049 33.1782C181.249 33.597 179.778 34.1152 179.778 34.3294C179.778 34.5432 180.184 35.1111 180.68 35.591C181.456 36.3409 182.184 36.4635 185.868 36.4635H190.154V38.6812V40.8986L184.853 40.7533C180.215 40.6259 179.374 40.4846 178.125 39.6231C175.641 37.91 174.815 35.5605 174.815 30.2045C174.815 24.7621 175.41 22.9387 177.608 21.6431C179.57 20.4862 185.398 20.3994 187.778 21.4913ZM78.2738 30.7925V36.4635H80.3039C83.5954 36.4635 84.1385 35.6106 84.1385 30.4435C84.1385 27.7001 83.9445 25.9809 83.5972 25.645C83.2994 25.3571 81.9799 25.1215 80.6648 25.1215H78.2738V30.7925ZM96.1255 25.8069C95.1023 26.7962 95.1023 34.7888 96.1255 35.7781C97.2059 36.8225 101.112 36.7117 101.717 35.6198C102.382 34.418 102.321 26.3015 101.642 25.645C100.842 24.8711 96.9763 24.9846 96.1255 25.8069ZM124.379 25.645C123.625 26.3744 123.675 29.0476 124.443 29.0476C125.655 29.0476 129.405 27.7677 129.744 27.239C130.496 26.062 129.308 25.1215 127.07 25.1215C125.888 25.1215 124.677 25.3571 124.379 25.645ZM180.319 25.645C179.565 26.3744 179.615 29.0476 180.383 29.0476C181.595 29.0476 185.345 27.7677 185.684 27.239C186.436 26.062 185.248 25.1215 183.01 25.1215C181.828 25.1215 180.617 25.3571 180.319 25.645ZM157.136 29.5008C158.582 30.8034 158.471 33.0827 156.902 34.2753C153.753 36.6711 150.072 32.4314 152.915 29.6823C154.263 28.3784 155.817 28.3117 157.136 29.5008ZM63.088 33.0386C60.7263 33.5512 59.9806 34.3277 60.6645 35.5631C61.0822 36.3182 61.5965 36.4635 63.8535 36.4635H66.5445V34.5004C66.5445 32.3237 66.4886 32.3001 63.088 33.0386ZM142.377 33.1176C138.243 34.1794 138.867 36.4635 143.291 36.4635H145.943V34.5004C145.943 32.294 145.801 32.2386 142.377 33.1176ZM27.7474 37.448C26.3828 39.1628 25.1985 40.7228 25.116 40.9139C25.033 41.1054 27.8751 41.2511 31.4318 41.238L37.8978 41.2135L40.7327 37.7481L43.5676 34.2823L36.8981 34.3063L30.2286 34.3303L27.7474 37.448Z" fill="white"/>
</svg>
