<svg width="226" height="42" viewBox="0 0 226 42" fill="none" xmlns="http://www.w3.org/2000/svg">
<path fill-rule="evenodd" clip-rule="evenodd" d="M2.19277 2.91106C0.827729 4.50119 0.507812 5.24061 0.507812 6.80543C0.507812 10.718 4.2538 13.6474 7.42061 12.2121C11.6748 10.2838 12.2553 5.62179 8.65984 2.25953C6.4667 0.208452 4.32749 0.423877 2.19277 2.91106ZM32.6823 1.70162C32.326 2.68799 32.326 39.8051 32.6823 40.7915C32.9124 41.4287 33.9 41.5472 38.9728 41.5472C42.2825 41.5472 44.9906 41.3623 44.9906 41.1364C44.9906 40.9104 46.1148 40.6023 47.4888 40.4514C50.7459 40.0941 54.9749 37.9461 57.8371 35.1957C63.2721 29.9725 64.7881 19.5599 61.2106 12.0258C58.6877 6.71276 53.0662 2.6579 47.3495 2.02786C46.0519 1.88457 44.9906 1.58268 44.9906 1.35675C44.9906 1.13082 42.2825 0.945961 38.9728 0.945961C33.9 0.945961 32.9124 1.06442 32.6823 1.70162ZM77.1089 2.0207C76.9714 2.61157 76.917 6.21218 76.988 10.0215L77.117 16.9476L81.3855 16.9457C85.1073 16.9438 85.8765 16.7967 87.3921 15.7969C89.2963 14.5412 90.8015 11.6742 90.8015 9.30503C90.8015 5.87686 87.7075 1.90128 85.0394 1.90128C84.5124 1.90128 84.0815 1.68634 84.0815 1.42362C84.0815 1.14753 82.6616 0.945961 80.7201 0.945961C77.6077 0.945961 77.3403 1.02573 77.1089 2.0207ZM93.7338 2.0207C93.5963 2.61157 93.5419 6.21218 93.6129 10.0215L93.7419 16.9476H94.8652H95.9885L96.1174 10.0215C96.2653 2.08518 96.108 0.945961 94.8652 0.945961C94.3246 0.945961 93.887 1.36153 93.7338 2.0207ZM102.728 1.45563C102.481 1.70974 101.738 2.34646 101.078 2.87046C99.5183 4.10808 99.091 6.17587 100.006 8.05786C100.718 9.52141 101.83 10.0602 105.832 10.8804C108.219 11.3695 108.928 12.6348 107.509 13.8729C106.211 15.0054 104.46 15.0494 102.019 14.0109C100.449 13.3432 100.107 13.325 99.77 13.8915C99.0591 15.0852 99.3283 15.5939 101.128 16.4571C102.43 17.0809 103.636 17.2485 105.688 17.0909C108.134 16.9027 108.636 16.6882 109.76 15.3522C112.166 12.4886 110.875 9.0065 107.159 8.34111C102.511 7.50855 101.119 6.24943 103.031 4.60437C104.064 3.71496 105.001 3.70398 108.617 4.53749C109.726 4.79304 110.077 4.68032 110.327 3.9901C110.535 3.4126 110.368 2.92109 109.829 2.52702C109.384 2.20078 108.774 1.71165 108.476 1.43986C107.796 0.820814 103.334 0.833234 102.728 1.45563ZM113.371 2.49836C113.505 3.97672 113.616 4.06222 115.688 4.28959L117.863 4.52842L117.934 10.738L118.005 16.9476H119.128H120.252L120.377 10.6186L120.503 4.28959H122.71C125.142 4.28959 125.64 3.85922 125.228 2.11289C124.953 0.949783 124.932 0.945961 119.092 0.945961H113.23L113.371 2.49836ZM127.882 2.0207C127.745 2.61157 127.69 6.21218 127.761 10.0215L127.89 16.9476H129.014C130.053 16.9476 130.147 16.7594 130.273 14.4151C130.363 12.7494 130.633 11.7917 131.061 11.6169C132.41 11.0662 133.952 11.9924 135.368 14.2049C137.06 16.8487 137.428 17.1692 138.786 17.1793C140.161 17.1893 140.064 16.6281 138.219 13.8977L136.64 11.5625L138.219 9.88443C140.308 7.66331 140.402 5.33615 138.484 3.29749C137.761 2.52941 136.851 1.90128 136.462 1.90128C136.072 1.90128 135.753 1.68634 135.753 1.42362C135.753 1.14276 134.183 0.945961 131.943 0.945961C128.364 0.945961 128.117 1.0114 127.882 2.0207ZM143.159 2.0207C143.022 2.61157 142.967 6.21218 143.038 10.0215L143.167 16.9476L144.403 17.0986L145.638 17.25V9.09773V0.945961H144.524C143.741 0.945961 143.334 1.26647 143.159 2.0207ZM149.233 9.0662V17.1864H150.356C151.383 17.1864 151.48 17.0068 151.48 15.1015C151.48 13.102 152.754 10.4992 153.732 10.4992C153.947 10.4992 155.086 11.8428 156.263 13.4846C157.439 15.1268 158.614 16.6281 158.872 16.821C159.587 17.3541 161.365 17.2538 161.365 16.6806C161.365 16.4021 160.151 14.4805 158.669 12.4098C157.186 10.3392 155.973 8.46435 155.973 8.24367C155.973 8.02299 157.186 6.56612 158.669 5.00608C161.6 1.92278 161.978 0.945961 160.24 0.945961C159.43 0.945961 158.267 1.89555 156.084 4.33688C154.416 6.20214 152.985 7.92173 152.903 8.15817C152.82 8.39509 152.466 8.58854 152.116 8.58854C151.62 8.58854 151.48 7.74547 151.48 4.76725C151.48 1.00949 151.461 0.945961 150.356 0.945961H149.233V9.0662ZM163.353 2.11289C162.94 3.86065 163.439 4.28959 165.884 4.28959H168.104V10.738V17.1864H169.228C169.846 17.1864 170.365 16.918 170.382 16.5894C170.399 16.2612 170.449 13.4129 170.494 10.2604L170.576 4.52842L172.598 4.37891C175.032 4.19883 175.499 3.79043 175.117 2.17498L174.827 0.945961H169.228C163.665 0.945961 163.627 0.953604 163.353 2.11289ZM180.685 1.42362C180.685 1.68634 180.4 1.90128 180.051 1.90128C179.088 1.90128 177.091 4.68557 177.091 6.02923C177.091 8.6215 178.775 10.0917 182.427 10.6869C186.037 11.2754 187.062 12.5775 185.078 14.0544C183.768 15.0308 181.559 14.9978 179.535 13.9718C177.97 13.1784 177.879 13.1813 177.287 14.042C176.514 15.1659 176.806 15.6756 178.704 16.5187C183.97 18.8578 190.036 15.3709 188.327 10.9859C187.721 9.42875 185.885 8.37789 182.954 7.91026C179.659 7.38484 178.824 5.93752 180.958 4.45152C181.979 3.7398 182.45 3.7078 184.651 4.19836C186.814 4.68079 187.272 4.655 187.862 4.01828C188.478 3.35146 188.46 3.20578 187.676 2.58864C187.197 2.21033 186.54 1.90128 186.216 1.90128C185.893 1.90128 185.628 1.68634 185.628 1.42362C185.628 1.16091 184.516 0.945961 183.157 0.945961C181.798 0.945961 180.685 1.16091 180.685 1.42362ZM86.116 5.05862C87.6684 6.14005 88.3873 8.92434 87.6927 11.1627C87.0048 13.3785 85.331 14.3205 82.082 14.3205H79.5883V9.30503V4.28959H82.2999C84.0365 4.28959 85.4088 4.56616 86.116 5.05862ZM136.784 5.29029C137.031 5.70968 137.101 6.61532 136.938 7.30315C136.712 8.26277 136.217 8.67643 134.816 9.07719C133.811 9.36474 132.448 9.53383 131.788 9.45263C130.674 9.31602 130.576 9.11922 130.45 6.77486L130.313 4.24469L133.323 4.38656C135.484 4.4883 136.461 4.74337 136.784 5.29029ZM48.7258 10.194C50.8623 11.1459 52.997 13.24 54.0889 15.4554C55.4678 18.2531 55.4678 24.2401 54.0889 27.0377C51.8836 31.5115 48.263 33.3347 42.1823 33.0329L40.4974 32.9493V21.3263C40.4974 14.9333 40.6492 9.5367 40.8343 9.33321C41.3115 8.80922 47.013 9.43114 48.7258 10.194ZM13.7264 17.8308C13.5988 18.1852 13.5543 19.9588 13.6284 21.7715L13.7628 25.0679L20.1656 25.2002L26.5684 25.333V21.2595V17.1864H20.264C15.3875 17.1864 13.9066 17.3326 13.7264 17.8308ZM154.875 22.0696C154.05 23.321 153.999 24.0643 154.662 25.194C155.047 25.8512 154.581 27.5063 152.415 33.1728C150.912 37.1049 149.682 40.5981 149.682 40.9348C149.682 41.2716 150.147 41.5472 150.716 41.5472C151.496 41.5472 151.991 41.0198 152.732 39.3977L153.714 37.2482L156.978 37.2501L160.241 37.2516L161.072 39.3996C161.731 41.1029 162.126 41.5472 162.982 41.5472C163.71 41.5472 164.061 41.2754 164.061 40.7113C164.061 40.2513 162.868 36.7586 161.41 32.9493C159.505 27.9725 158.873 25.7968 159.163 25.2188C160.688 22.1833 156.72 19.2695 154.875 22.0696ZM76.7346 26.0098C76.1856 27.5312 76.913 28.1727 79.187 28.1727H81.3855V34.1042C81.3855 40.6391 81.55 41.5472 82.7335 41.5472C83.9166 41.5472 84.0815 40.6391 84.0815 34.1291V28.2228L86.4404 28.0781C88.621 27.9448 88.7993 27.8435 88.7993 26.7397V25.5455L82.8989 25.4127C77.9419 25.301 76.9561 25.3965 76.7346 26.0098ZM93.9737 26.3814C90.42 35.4107 88.5747 40.3731 88.5747 40.8999C88.5747 41.2639 89.0447 41.5472 89.6486 41.5472C90.4807 41.5472 90.9359 41.0638 91.6727 39.3977L92.6231 37.2482H95.9296H99.2362L100.009 39.3977C100.63 41.1259 100.993 41.5472 101.867 41.5472C102.61 41.5472 102.953 41.2778 102.953 40.6941C102.953 39.7177 98.1609 26.8075 97.4627 25.9038C96.6642 24.8696 94.4491 25.1729 93.9737 26.3814ZM105.518 25.6047C105.13 26.017 105.089 39.7301 105.472 40.7915C105.887 41.9388 107.391 41.7196 107.663 40.4724C107.791 39.8811 107.947 37.3619 108.008 34.8733L108.12 30.3494L112.164 35.9218C115.174 40.0702 116.469 41.5013 117.23 41.5209L118.251 41.5472L118.128 33.5463L118.005 25.5455H116.882H115.759L115.719 30.561C115.697 33.3195 115.533 35.5325 115.356 35.479C115.179 35.425 113.373 33.168 111.344 30.4635C107.943 25.9305 106.412 24.6542 105.518 25.6047ZM121.824 33.3701V41.5472H125.419C127.516 41.5472 129.014 41.348 129.014 41.0695C129.014 40.8068 129.368 40.5909 129.8 40.5899C131.076 40.5871 133.447 38.8083 134.408 37.1331C135.671 34.9311 135.617 31.1953 134.292 29.105C132.605 26.445 130.737 25.6071 126 25.3869L121.824 25.1925V33.3701ZM136.529 25.6377C136.415 25.8498 137.63 29.5163 139.228 33.7852C141.992 41.1636 142.196 41.5472 143.361 41.5472C144.387 41.5472 144.742 41.1794 145.551 39.2783C147.512 34.6698 150.521 26.0676 150.303 25.6931C149.959 25.1003 148.497 25.2341 148.006 25.9038C147.765 26.2324 146.702 28.9192 145.642 31.8745C144.583 34.8303 143.593 37.2449 143.442 37.2411C143.291 37.2372 142.227 34.6044 141.078 31.3897C139.231 26.2228 138.858 25.5283 137.863 25.3989C137.243 25.3181 136.643 25.4256 136.529 25.6377ZM166.644 25.5775C166.459 25.7786 166.307 29.4542 166.307 33.7455V41.5472H167.43C168.607 41.5472 168.614 41.5295 168.721 37.9647C168.776 36.1267 168.84 36.0483 170.408 35.9093C171.937 35.7737 172.158 35.9413 174.002 38.642C175.386 40.6673 176.267 41.5233 176.979 41.5333C178.447 41.5534 178.252 40.3836 176.32 37.5854C175.086 35.799 174.814 35.1092 175.278 34.9449C176.761 34.4195 177.99 32.3336 177.99 30.3417C177.99 28.7511 177.717 28.0738 176.633 26.9704C175.376 25.6893 174.975 25.5751 171.129 25.3998C168.848 25.2962 166.83 25.3759 166.644 25.5775ZM181.584 33.4269V41.5472H185.179C187.276 41.5472 188.773 41.348 188.773 41.0695C188.773 40.8068 189.127 40.5909 189.56 40.5899C190.836 40.5871 193.207 38.8083 194.167 37.1331C195.228 35.2836 195.36 31.596 194.432 29.7012C192.873 26.5147 190.251 25.3138 184.842 25.3095L181.584 25.3067V33.4269ZM198.523 25.6105C198.35 25.7934 198.209 29.4542 198.209 33.7455V41.5472H203.629H209.05L208.909 39.9948L208.768 38.4424L204.836 38.3043L200.905 38.1663V36.2743V34.3822H204.754H208.603L208.461 33.0935C208.32 31.8163 208.287 31.8043 204.724 31.7799L201.13 31.7551L200.991 29.983L200.853 28.2109L204.81 28.0723C208.697 27.9362 208.768 27.9128 208.768 26.7397C208.768 25.546 208.766 25.5455 203.802 25.4113C201.071 25.3377 198.695 25.4271 198.523 25.6105ZM212.438 25.6253C212.063 26.0232 212.039 39.7612 212.411 40.7915C212.763 41.7688 214.208 41.7688 214.561 40.7915C214.711 40.3759 214.834 38.0115 214.834 35.5372C214.834 33.0629 214.989 31.0386 215.18 31.0386C215.37 31.0386 217.24 33.394 219.336 36.2733C222.146 40.1328 223.412 41.5128 224.157 41.5276C225.167 41.5472 225.168 41.5367 225.168 33.3954V25.2432L223.933 25.3946L222.697 25.5455L222.472 30.7071L222.248 35.8687L218.321 30.5877C214.67 25.6754 213.399 24.6036 212.438 25.6253ZM174.651 28.6775C175.624 29.5369 175.459 31.8659 174.381 32.4792C173.88 32.7649 172.414 32.9335 171.124 32.8542C168.912 32.7186 168.77 32.6321 168.631 31.3391C168.55 30.5848 168.611 29.4275 168.767 28.7673C169.038 27.6214 169.164 27.5789 171.529 27.8383C172.892 27.9883 174.297 28.3656 174.651 28.6775ZM131.295 29.5689C132.37 30.7119 132.608 31.3682 132.608 33.1881C132.608 35.0166 132.371 35.6629 131.273 36.8303C130.04 38.141 129.725 38.2389 127.171 38.1071L124.405 37.9647L124.435 33.3075C124.451 30.7463 124.477 28.5428 124.492 28.4115C124.508 28.2801 125.749 28.1727 127.251 28.1727C129.67 28.1727 130.131 28.3322 131.295 29.5689ZM191.054 29.5689C192.13 30.7119 192.368 31.3682 192.368 33.1881C192.368 35.0166 192.131 35.6629 191.032 36.8303C189.795 38.1457 189.49 38.2394 186.876 38.1071C185.325 38.0287 184.106 37.8033 184.168 37.6065C184.229 37.4097 184.28 35.2062 184.28 32.7104V28.1727H187.011C189.429 28.1727 189.891 28.3322 191.054 29.5689ZM2.02112 31.789C0.781449 33.1867 0.507812 33.8702 0.507812 35.5702C0.507812 37.3141 0.781 37.9575 2.21883 39.5964C3.69529 41.2792 4.18865 41.5472 5.81339 41.5472C6.84952 41.5472 7.69694 41.3465 7.69694 41.1015C7.69694 40.8565 8.08785 40.5245 8.56548 40.363C9.04311 40.2021 9.86851 39.1159 10.3996 37.9494C11.2309 36.1243 11.2933 35.5974 10.8494 34.1659C10.0662 31.6433 8.05326 30.0833 5.58109 30.0833C3.81661 30.0833 3.32595 30.3183 2.02112 31.789Z" fill="white"/>
</svg>
