<svg width="227" height="76" viewBox="0 0 227 76" fill="none" xmlns="http://www.w3.org/2000/svg">
<path fill-rule="evenodd" clip-rule="evenodd" d="M79.8867 4.24422C80.3682 6.44428 80.7616 12.9965 80.7616 18.8054V29.3677L95.847 29.3271C104.144 29.3049 116.151 29.5769 122.53 29.93L134.126 30.5723L134.83 16.9782C135.216 9.50196 135.39 3.23894 135.216 3.06175C134.54 2.3727 100.702 0.266157 90.1447 0.256313L79.0117 0.245239L79.8867 4.24422ZM113.026 5.64079C114.391 7.75348 114.124 8.86705 112.058 9.67546C111.018 10.0827 109.552 9.78866 108.8 9.02208C107.149 7.33882 105.502 7.20716 105.502 8.75754C105.502 9.38015 107.402 11.0856 109.725 12.5498C113.137 14.6994 113.949 15.9729 113.949 19.1721C113.949 24.34 112.072 26.0848 106.509 26.0848C103.186 26.0848 101.616 25.4179 100.661 23.5981C99.9429 22.231 99.6847 20.5699 100.087 19.9067C101.241 18.002 105.502 18.5052 105.502 20.5478C105.502 21.5629 106.045 22.3935 106.708 22.3935C109.578 22.3935 107.749 16.7678 104.21 14.7154C101.114 12.9177 100.58 11.937 100.899 8.61111C101.187 5.59034 101.995 4.44971 104.295 3.81356C107.797 2.84396 111.754 3.67206 113.026 5.64079ZM9.41659 38.2774C5.15771 40.9254 3.4235 45.8226 5.40752 49.6025C6.14368 51.0052 9.68692 53.4785 13.282 55.099C20.5387 58.3708 21.3593 60.0011 16.666 61.8197C14.326 62.7266 12.5761 62.5642 9.87398 61.191C6.42005 59.4339 0.507812 59.7624 0.507812 61.7102C0.507812 62.2098 1.45879 63.4944 2.62217 64.5673C8.91335 70.3739 19.2788 69.9075 25.5494 63.5374C27.706 61.346 29.4716 58.4126 29.4716 57.0173C29.4716 53.6347 25.3696 49.9151 19.4043 47.8873C13.6912 45.9456 12.6328 44.0249 16.2038 42.0771C18.2337 40.9684 19.3862 41.0853 21.7033 42.6332C24.5984 44.5687 30.6784 44.1639 30.6784 42.0365C30.6784 41.4827 29.2471 39.8807 27.4984 38.4792C23.3578 35.157 14.5915 35.0598 9.41659 38.2774ZM140.105 36.8513C139.594 37.7274 133.259 65.8692 133.259 67.2596C133.259 67.6238 138.626 67.9203 145.186 67.9203C156.921 67.9203 157.123 67.8711 157.685 64.8737C158 63.1966 157.972 61.5355 157.624 61.1824C157.277 60.828 154.059 60.5376 150.475 60.5376C144.833 60.5376 144.041 60.2484 144.586 58.3843C145.879 53.9522 148.947 39.4008 148.947 37.6979C148.947 35.8276 141.135 35.0795 140.105 36.8513ZM36.7125 40.8072C36.7125 42.1361 35.6264 43.8169 34.2989 44.5417C31.6813 45.9702 31.0622 48.9787 33.2357 49.717C34.2192 50.0516 34.1734 52.0573 33.0667 57.0972C31.0115 66.4573 31.7441 67.9203 38.4854 67.9203C43.4478 67.9203 43.9535 67.6484 43.9535 64.9758C43.9535 63.3566 43.1872 61.7311 42.2519 61.3657C39.7839 60.3998 42.3436 50.5709 45.2653 49.792C48.3801 48.9615 49.2587 45.6688 46.5566 44.9489C44.9371 44.5171 44.4773 43.5339 44.8828 41.3708C45.3908 38.6601 45.0457 38.3894 41.0776 38.3894C37.5428 38.3894 36.7125 38.8496 36.7125 40.8072ZM53.485 47.3508C50.8553 49.151 48.7506 52.0118 47.6198 55.3217C45.9677 60.1562 46.0148 60.7 48.3512 63.8943C52.499 69.5655 63.2796 69.7414 68.5739 64.2265L71.107 61.5872L63.3013 61.9846C56.6469 62.3242 55.4316 62.0658 55.0659 60.23C54.6882 58.3302 55.714 58.0767 63.778 58.0767H72.9173V54.3299C72.9173 45.4559 61.9835 41.5295 53.485 47.3508ZM75.4794 54.9562C74.0698 60.684 72.9173 65.9442 72.9173 66.6456C72.9173 67.3469 74.7794 67.9203 77.0543 67.9203C81.0839 67.9203 81.2311 67.7431 82.6733 61.17C84.212 54.1614 87.4149 49.7982 89.8792 51.351C91.2634 52.2234 90.899 58.5467 89.0851 65.1518C88.3972 67.6533 88.7424 67.9203 92.6658 67.9203C96.1812 67.9203 97.125 67.3937 97.6246 65.1518C101.234 48.9455 101.232 48.9775 98.7783 46.4747C96.355 44.004 91.1138 43.9953 87.6683 46.4575C85.2402 48.1912 84.9855 48.1912 84.9855 46.4575C84.9855 45.1667 83.8511 44.5417 81.5135 44.5417C78.1634 44.5417 77.951 44.9083 75.4794 54.9562ZM110.329 45.4141C107.901 46.3246 104.295 49.5939 104.295 50.8847C104.295 52.3551 112.443 52.1828 113.346 50.6939C114.506 48.7806 118.777 49.2469 118.777 51.2858C118.777 53.0872 117.494 53.5683 108.986 54.9538C103.514 55.8446 100.37 59.2505 100.885 63.7319C101.381 68.0421 105.783 69.4584 111.957 67.294C114.461 66.4155 116.363 66.2518 116.363 66.9126C116.363 67.5524 118.09 67.9031 120.201 67.6902C123.781 67.3309 124.143 66.8498 125.581 60.5376C127.79 50.8379 127.624 47.3077 124.89 45.8152C122.456 44.4875 113.462 44.2402 110.329 45.4141ZM164.092 46.0797C163.336 48.564 159.809 65.6612 159.809 66.8412C159.809 67.4343 161.618 67.9203 163.83 67.9203H167.85L170.281 56.8622C171.619 50.7801 172.433 45.5199 172.093 45.1729C170.829 43.8834 164.543 44.5958 164.092 46.0797ZM176.26 45.51C175.89 46.1203 174.533 51.4421 173.245 57.3372L170.903 68.0545L175.291 67.6804C179.549 67.3162 179.721 67.107 181.138 60.5733C182.748 53.1475 185.816 49.5915 188.343 52.2197C189.527 53.4502 189.495 55.2429 188.19 60.9141L186.545 68.0581L190.977 67.6816L195.41 67.3051L197.171 58.3142C199.172 48.0965 198.361 45.3981 193.099 44.7595C191.297 44.5417 188.52 45.2332 186.927 46.2975C183.427 48.6354 182.644 48.7154 183.04 46.695C183.389 44.9145 177.269 43.8452 176.26 45.51ZM208.586 45.734C201.806 48.5308 197.728 58.2994 200.855 64.256C203.659 69.5974 215.449 69.5372 221.562 64.1502L224.374 61.6733L216.561 62.0277C209.92 62.3304 208.685 62.0609 208.327 60.23C207.956 58.3412 208.957 58.0767 216.479 58.0767C226.078 58.0767 227.491 56.8807 225.033 50.8318C222.801 45.3378 215.234 42.9925 208.586 45.734ZM56.3234 74.9955C87.3533 75.1776 138.13 75.1776 169.162 74.9955C200.191 74.8121 174.803 74.6632 112.742 74.6632C50.6815 74.6632 25.2924 74.8121 56.3234 74.9955Z" fill="white"/>
</svg>
