<svg width="227" height="92" viewBox="0 0 227 92" fill="none" xmlns="http://www.w3.org/2000/svg">
<path fill-rule="evenodd" clip-rule="evenodd" d="M67.6097 5.30658C64.0743 8.41333 58.9295 15.6612 56.1778 21.4109C53.426 27.1624 50.8656 32.2587 50.4867 32.7354C48.5976 35.1133 46.3719 27.0133 46.3462 17.6691C46.3241 9.17161 45.6343 6.78633 42.7612 5.24584C35.948 1.59799 33.5586 3.2121 27.1943 15.7642L20.8962 28.1875L18.8931 23.0066C17.7894 20.1575 16.8881 16.1691 16.8881 14.1428C16.8881 6.9667 13.4356 3.34094 6.5985 3.34094C3.03373 3.34094 0.504552 3.96854 0.979118 4.73603C1.45184 5.50351 3.16801 12.7514 4.7922 20.8403C8.79106 40.7691 12.4386 48.5194 19.4118 51.9004C22.5774 53.4335 25.6841 54.109 26.3187 53.4004C26.9533 52.6937 28.8829 47.7667 30.6046 42.4513C32.3281 37.1378 33.9651 32.7888 34.2429 32.7888C34.5225 32.7888 38.1976 37.7084 42.4117 43.7194C46.6276 49.7323 51.7136 55.171 53.7148 55.8078C60.5592 57.9814 64.3355 55.1986 65.7041 46.9753C67.6134 35.4924 73.3265 21.2618 79.3911 12.8857L84.7548 5.47959L80.3163 2.56977C74.6068 -1.17378 75.1089 -1.28237 67.6097 5.30658ZM173.697 1.03296C172.176 1.54462 171.398 5.81639 171.398 13.6514C171.398 25.2446 171.304 25.4728 166.971 24.3851C160.718 22.8152 155.449 26.2274 151.17 34.6182C146.55 43.6808 146.548 46.574 151.165 51.1937C155.331 55.3624 165.696 56.1519 169.305 52.574C171.164 50.7317 171.988 50.9139 173.443 53.4943C174.442 55.2648 176.839 56.7151 178.767 56.7151C182.079 56.7151 182.254 55.1746 181.896 29.2035C181.504 0.841553 180.858 -1.37808 173.697 1.03296ZM77.6013 23.5679C69.2578 35.2937 71.2168 49.09 81.9515 54.2121C89.815 57.9648 96.503 56.4759 103.576 49.401C112.811 40.1599 110.306 25.5409 98.6533 20.6691C88.4612 16.4084 82.0692 17.29 77.6013 23.5679ZM115.304 25.4121C113.619 28.6716 112.101 35.0489 111.93 39.5839C111.665 46.5427 112.423 48.525 116.779 52.2722C119.617 54.7164 123.756 56.7114 125.976 56.7078C132.359 56.6967 141.066 50.371 144.414 43.3108C151.277 28.8409 146.434 21.5176 129.178 20.2679C118.557 19.4986 118.313 19.5906 115.304 25.4121ZM211.205 24.0464C209.785 26.325 207.169 32.9489 205.392 38.7704C203.617 44.5918 201.607 49.3532 200.924 49.3532C200.242 49.3532 198.63 45.0059 197.341 39.6906C196.052 34.3753 194.597 28.5796 194.109 26.8072C193.576 24.8655 191.446 23.5863 188.749 23.5863C182.766 23.5863 182.953 27.2379 189.792 43.8317C196.535 60.1937 196.585 62.6857 190.445 76.1065C185.773 86.3176 185.714 86.8403 188.957 89.2127C194.071 92.9544 196.585 92.2108 197.705 86.6231C200.251 73.9182 211.221 47.9912 219.27 35.6562C227.737 22.6771 227.945 22.0495 224.13 21.0262C216.971 19.1047 213.831 19.8372 211.205 24.0464ZM93.7752 23.9544C96.8838 27.0648 96.5637 41.0562 93.3245 43.747C91.8622 44.9618 88.7591 45.6832 86.4268 45.3538C82.8234 44.8421 82.2182 43.725 82.3911 37.9182C82.5861 31.3385 87.1828 21.7458 90.1387 21.7458C90.9241 21.7458 92.5612 22.7397 93.7752 23.9544ZM134.242 27.6354C138.064 31.4599 136.659 38.3839 130.885 44.1612C126.329 48.72 124.83 49.32 122.608 47.474C119.107 44.5679 119.225 42.7237 123.524 33.2489C127.129 25.2998 130.267 23.6581 134.242 27.6354ZM170.478 37.3182C170.478 48.7145 160.891 52.5998 157.737 42.4826C156.784 39.4256 157.678 37.147 161.219 33.6041C167.416 27.4035 170.478 28.6329 170.478 37.3182ZM18.7275 73.2795C18.7275 77.4059 19.5792 78.801 22.0992 78.801C26.7308 78.801 27.5401 77.6157 26.5266 72.3151C25.193 65.3341 18.7275 66.1329 18.7275 73.2795ZM34.3036 71.4538C36.5035 78.7053 38.0174 79.1636 40.2467 73.2538C41.389 70.2262 41.5656 67.7581 40.6403 67.7581C39.717 67.7581 38.961 68.6875 38.961 69.8231C38.961 71.1703 37.9088 71.0157 35.937 69.3777C33.2294 67.1305 33.0583 67.3476 34.3036 71.4538ZM48.158 73.2795C48.158 77.5182 48.9876 78.801 51.7283 78.801C55.5579 78.801 58.4991 75.6519 56.5199 73.6697C55.8577 73.0071 54.6364 73.5648 53.8068 74.9102C52.7491 76.62 51.9196 76.7415 51.0385 75.317C49.1586 72.2709 51.5351 69.5986 54.9564 70.9127C56.9632 71.682 57.5169 71.3507 56.6284 69.9114C55.8964 68.7262 53.6927 67.7581 51.7283 67.7581C48.9876 67.7581 48.158 69.0409 48.158 73.2795ZM65.3785 70.5188C63.8996 74.3746 65.9137 78.801 69.1456 78.801C72.2744 78.801 74.8459 75.444 73.0745 73.6697C72.4124 73.0071 71.191 73.5648 70.3614 74.9102C69.3038 76.62 68.4742 76.7415 67.5931 75.317C65.7133 72.2709 68.0898 69.5986 71.5111 70.9127C73.5178 71.682 74.0715 71.3507 73.1831 69.9114C71.3069 66.8728 66.6366 67.2354 65.3785 70.5188ZM81.3243 73.2795C81.3243 78.328 81.7455 79.1249 83.274 76.9605C84.7437 74.8826 85.4574 74.7685 86.1582 76.5004C87.8891 80.7685 90.4643 78.8415 90.4643 73.2795C90.4643 67.7176 87.8891 65.7906 86.1582 70.0587C85.4574 71.7906 84.7437 71.6765 83.274 69.5986C81.7455 67.4341 81.3243 68.2311 81.3243 73.2795ZM98.9384 70.6697C96.8875 76.02 97.7851 77.8808 102.42 77.8808C104.95 77.8808 107.019 77.728 107.019 77.5403C107.019 77.3525 106.211 75.0759 105.225 72.4789C103.189 67.1231 100.587 66.374 98.9384 70.6697ZM113.203 70.5188C112.62 72.0372 112.734 74.7298 113.457 76.5004C114.674 79.482 114.869 79.4581 116.091 76.1746C117.272 73.0053 117.538 72.9556 118.596 75.7145C120.594 80.9249 123.581 79.1397 123.445 72.8194C123.344 68.1538 123.009 67.6182 121.927 70.3844C120.684 73.5574 120.413 73.6053 119.354 70.8446C117.884 67.0127 114.614 66.8397 113.203 70.5188ZM130.931 73.4084C130.931 78.2139 131.549 78.9685 135.07 78.4697C138.033 78.0482 139.374 76.4433 139.79 72.8194C140.292 68.4611 139.716 67.7581 135.651 67.7581C131.61 67.7581 130.931 68.5697 130.931 73.4084ZM147.486 73.2795C147.486 77.7869 148.245 78.7955 151.624 78.7734C154.985 78.7495 155.244 78.4035 153.004 76.9329C150.552 75.3206 150.552 74.9194 153.004 73.3071C155.456 71.6967 155.456 71.4887 153.004 71.439C150.552 71.3894 150.552 71.1851 153.004 69.5986C155.235 68.1556 154.97 67.8096 151.624 67.7857C148.245 67.7636 147.486 68.7722 147.486 73.2795ZM162.201 72.4163C162.201 77.0415 166.685 80.5384 169.178 77.8568C169.893 77.0857 169.445 76.0863 168.179 75.6354C166.915 75.1826 165.88 73.2262 165.88 71.2863C165.88 69.3446 165.052 67.7581 164.04 67.7581C163.029 67.7581 162.201 69.8544 162.201 72.4163ZM138.289 73.3881C138.289 74.3415 137.461 75.12 136.449 75.12C135.438 75.12 134.61 73.828 134.61 72.2507C134.61 70.6734 135.438 69.893 136.449 70.5188C137.461 71.1446 138.289 72.4347 138.289 73.3881Z" fill="white"/>
</svg>
