<svg width="226" height="64" viewBox="0 0 226 64" fill="none" xmlns="http://www.w3.org/2000/svg">
<path fill-rule="evenodd" clip-rule="evenodd" d="M30.5045 0.876746C26.9264 2.23695 24.0021 9.21112 22.5493 19.8493C22.3545 21.2758 22.1189 22.4911 22.0256 22.5502C21.9326 22.609 21.3238 22.7099 20.6731 22.774C15.5845 23.276 9.17582 24.9557 5.7768 26.6783C3.89427 27.6323 3.04294 28.2452 2.0363 29.371C-0.489489 32.1956 0.988855 35.2606 6.05985 37.7134C9.5138 39.3839 14.2903 40.6392 20.2223 41.4352C21.2637 41.5749 22.1328 41.7085 22.1534 41.7321C22.174 41.7557 22.3885 43.1868 22.6302 44.9122C25.1389 62.8244 32.0314 69.1272 37.0638 58.1105C38.7108 54.5049 40.3 47.9649 40.7429 42.9702L40.855 41.7041L41.6209 41.6044C42.0422 41.5496 43.6287 41.3159 45.1467 41.0853C54.3972 39.6797 61.1752 36.5127 62.1319 33.1489C62.4727 31.951 62.3016 31.0202 61.5304 29.8747C59.4669 26.8092 52.1809 24.0255 43.2904 22.9061L40.9124 22.6066L40.6106 20.1528C39.5998 11.9358 37.2574 4.95753 34.605 2.26239C33.2627 0.898452 31.7722 0.394798 30.5045 0.876746ZM79.9068 19.0658C77.6683 19.6196 75.7562 21.2096 74.7766 23.3316C74.2939 24.3774 74.2422 24.6519 74.1866 26.4663C74.1358 28.1239 74.1836 28.6501 74.4743 29.6283C75.2053 32.0879 77.3996 34.1178 79.9862 34.7271C80.417 34.8286 83.713 34.9004 88.0615 34.9029C96.1806 34.9075 96.2673 34.9178 96.8871 35.9567C97.1331 36.3689 97.2215 36.8107 97.2202 37.6203C97.2181 38.9169 97.0062 39.4207 96.2423 39.9469L95.6808 40.3336H85.5013H75.3218V43.0469V45.7601L85.3185 45.7588C91.2456 45.7581 95.7542 45.6876 96.3936 45.5857C99.7722 45.0472 102.309 42.4092 102.736 38.9905C103.23 35.0371 101.751 31.9715 98.5744 30.3665L97.3246 29.7348L89.2606 29.65C81.9206 29.5728 81.1565 29.5384 80.7504 29.2661C80.087 28.8214 79.7904 28.2547 79.6936 27.2465C79.5767 26.0261 79.899 25.103 80.6143 24.6112L81.1781 24.2234H91.1917H101.205V21.5101V18.7968L91.0427 18.8109C82.8687 18.8223 80.6897 18.8721 79.9068 19.0658ZM109.335 32.2785V45.7601H112.156H114.977V32.2785V18.7968H112.156H109.335V32.2785ZM128.294 19.0536C126.031 19.556 124.061 21.1657 123.057 23.3316L122.526 24.4778V32.2873V40.097L123.15 41.3867C124.217 43.5943 126.361 45.2017 128.748 45.5846C129.392 45.6879 133.823 45.7581 139.74 45.7588L149.654 45.7601V37.7051V29.65H142.353H135.053V32.2758V34.9016L139.574 34.9467L144.095 34.9918L144.141 37.6627L144.187 40.3336H136.96C129.088 40.3336 128.946 40.318 128.325 39.3815C128.021 38.9215 127.998 38.5157 127.951 32.617C127.894 25.5982 127.932 25.2745 128.897 24.6112L129.461 24.2234H139.557H149.654V21.5101V18.7968L139.491 18.8102C131.601 18.8207 129.097 18.8752 128.294 19.0536ZM157.286 32.2785V45.7601H160.107H162.927V34.9918V24.2234H167.573H172.219V34.9918V45.7601H174.957H177.694V34.9835V24.2068L181.855 24.2575L186.016 24.3082L186.584 24.9416L187.152 25.5751V35.6676V45.7601H189.972H192.793V35.6209C192.793 24.4244 192.785 24.3202 191.749 22.5513C190.705 20.7694 188.685 19.3732 186.582 18.9807C185.925 18.8579 180.892 18.7968 171.442 18.7968H157.286V32.2785ZM200.259 21.5101V24.2234L209.343 24.226C216.277 24.2278 218.525 24.2785 218.837 24.4403C219.063 24.557 219.42 24.9139 219.631 25.2338C219.983 25.7678 220.01 25.9689 219.967 27.6903L219.921 29.5652L211.874 29.65L203.827 29.7348L202.541 30.3621C199.679 31.7592 198.268 34.1547 198.268 37.6203C198.268 41.4399 200.004 44.0203 203.421 45.2807L204.49 45.6754L214.989 45.7259L225.488 45.7766L225.442 35.0386L225.396 24.3006L224.844 23.1547C223.828 21.0456 221.697 19.4194 219.359 18.969C218.823 18.8657 214.824 18.7968 209.362 18.7968H200.259V21.5101ZM220.004 37.6254V40.3436L212.524 40.2963L205.045 40.2488L204.477 39.6154C203.932 39.0074 203.909 38.9286 203.909 37.6605C203.909 36.1943 204.091 35.7776 204.966 35.2322C205.457 34.9263 205.892 34.9082 212.745 34.9077L220.004 34.907V37.6254Z" fill="white"/>
</svg>
