<svg width="226" height="127" viewBox="0 0 226 127" fill="none" xmlns="http://www.w3.org/2000/svg">
<path fill-rule="evenodd" clip-rule="evenodd" d="M177.353 9.99437L175.422 10.6673C169.693 12.6641 163.451 16.4744 159.165 20.5907C153.559 25.9752 150.121 32.1119 148.548 39.5375C147.034 46.6892 147.144 55.7194 148.837 63.2276C149.146 64.5969 149.375 65.7441 149.345 65.7766C149.316 65.8093 145.948 65.7652 141.861 65.6789L134.43 65.5219L134.558 15.6852L135.191 14.5959C136.373 12.5626 138.177 11.5812 144.301 9.63964C148.051 8.45073 162.255 4.33221 166.393 3.23411C167.523 2.93439 168.401 2.64179 168.344 2.58393C168.287 2.52631 158.909 4.11264 147.505 6.10918L126.769 9.73947L126.619 12.7125C126.406 16.9363 126.453 44.204 126.697 57.5367C126.957 71.7935 127.52 76.6371 129.851 84.6468C134.925 102.082 143.876 113.02 159.743 121.174C166.361 124.575 172.205 126.766 174.678 126.773L175.403 126.775L175.557 122.685C175.641 120.435 175.71 117.031 175.711 115.12L175.712 111.644L176.825 111.497C177.438 111.416 183.532 110.768 190.368 110.058C197.203 109.347 203.271 108.704 203.852 108.628L204.908 108.489L204.512 101.686C204.294 97.9444 204.108 94.8562 204.1 94.8237C204.092 94.7912 203.923 94.7644 203.724 94.7644C203.011 94.7644 201.509 93.7977 201.159 93.114C200.659 92.1366 200.71 90.534 201.27 89.6049C201.67 88.9412 202.755 88.0639 203.482 87.8156C203.612 87.7713 203.48 83.9311 203.155 78.2706L202.61 68.7999L199.843 65.4802L210.582 65.3356C216.488 65.2561 222.297 65.176 223.49 65.1577L225.659 65.1245V10.1219L225.132 9.99508C224.841 9.92537 214.21 7.78324 201.506 5.23492C188.802 2.68637 178.171 0.542336 177.881 0.470489L177.353 0.3396L177.353 9.99437ZM184.271 18.4458L185.443 19.8889C187.669 22.6285 191.546 26.5597 193.387 27.9445C194.403 28.7085 196.279 29.983 197.556 30.7767C199.249 31.8285 199.85 32.325 199.773 32.6075C199.715 32.8206 199.48 34.5284 199.251 36.4025L198.836 39.8099L197.24 39.6945C196.362 39.6309 195.644 39.6255 195.644 39.6824C195.644 39.7393 195.964 40.2574 196.357 40.8338C196.929 41.6744 197.022 41.9729 196.826 42.3421C196.382 43.182 195.281 43.7841 194.201 43.7786C193.109 43.7729 192.447 43.3741 191.793 42.326C191.318 41.5665 191.024 41.5068 186.135 41.1748C183.133 40.9709 182.185 40.9818 181.445 41.2284C180.571 41.5198 180.519 41.5912 180.521 42.4827C180.524 43.3359 181.416 44.7468 189.649 56.9271L198.774 70.426L198.376 78.5049C198.157 82.9483 197.98 86.8238 197.983 87.1173L197.989 87.6508H158.828L158.823 87.1173C158.821 86.8238 158.997 82.8911 159.215 78.3778L159.613 70.1716L158.898 68.9976C157.412 66.5548 155.267 60.1078 154.462 55.6616C153.951 52.8401 153.768 45.8309 154.129 42.9122C154.745 37.9441 156.446 32.7443 158.722 28.875C160.558 25.7533 162.049 23.8831 165.267 20.6647C168.507 17.4252 171.293 15.2375 175.296 12.7895L177.705 11.3168L177.939 18.2935L184.271 18.4458ZM0.660485 62.8719H10.5093L10.6289 18.6492H0.540892L0.660485 62.8719ZM19.0684 62.9999L29.0345 62.8719L29.1571 44.4952H45.3319V62.9905H55.1807V18.6492H45.3319V35.4847H29.1517V18.6492H19.0684V62.9999ZM65.4915 18.9456C65.4878 19.1087 64.8628 29.0054 64.1031 40.9384C63.3431 52.8714 62.8 62.7173 62.8959 62.8181C62.992 62.9188 65.0678 62.9722 67.5089 62.9366L71.9472 62.8719L72.3369 54.6913C72.5512 50.192 72.8418 43.8431 72.9825 40.5827C73.1232 37.3223 73.3073 33.1609 73.3914 31.3351L73.5443 28.0154L74.3175 31.7548C75.4353 37.1627 76.6448 41.9727 79.5634 52.6186C80.9846 57.8039 82.1477 62.1013 82.1477 62.1684C82.1477 62.2357 83.9001 62.2613 86.0422 62.2255L89.9365 62.1605L91.9112 55.7583C92.9974 52.2371 94.6159 47.0086 95.5077 44.1395C97.1543 38.8427 98.891 32.7827 99.6866 29.5567L100.125 27.7783L100.308 35.2475C100.408 39.3556 100.663 47.2517 100.874 52.7943L101.259 62.8719L106.125 62.9359C110.789 62.9973 110.991 62.9812 110.991 62.5447C110.991 62.2943 110.463 52.4221 109.818 40.6064C109.173 28.7906 108.646 19.0167 108.646 18.8863C108.646 18.7339 106.32 18.6497 102.139 18.6502L95.6312 18.6513L93.0011 27.0086C90.4362 35.1581 89.2722 39.2724 87.752 45.5622C87.3423 47.2576 86.9319 48.7301 86.8402 48.8345C86.7486 48.9388 86.4371 47.8238 86.148 46.3568C85.2862 41.9834 83.521 35.1382 81.0648 26.6475L78.7513 18.6492H72.1249C66.9838 18.6492 65.4969 18.7156 65.4915 18.9456ZM224.287 74.5649C221.245 88.0411 213.973 101.561 204.324 111.68C197.854 118.466 190.055 123.844 183.098 126.319C181.29 126.962 181.257 126.987 182.196 127C184.042 127.024 188.715 126.052 191.862 124.989C199.358 122.456 205.885 118.143 212.196 111.553C218.763 104.694 222.886 95.3873 224.595 83.5674C225.054 80.3907 225.471 72.8489 225.243 71.8381C225.099 71.1981 224.952 71.6161 224.287 74.5649ZM197.483 97.7877C197.631 99.4503 197.82 101.745 197.905 102.886L198.058 104.961H176.894C159.188 104.961 155.749 104.908 155.851 104.639C155.992 104.268 158.359 95.0591 158.359 94.8822C158.359 94.8175 167.101 94.7644 177.787 94.7644H197.215L197.483 97.7877Z" fill="white"/>
<path d="M0.0742188 96.3111V79.0805H6.69489C7.94471 79.0805 8.98341 79.2768 9.811 79.6694C10.6442 80.0565 11.2663 80.5865 11.6773 81.2596C12.0939 81.9326 12.3022 82.6955 12.3022 83.548C12.3022 84.2491 12.1671 84.8493 11.8968 85.3485C11.6266 85.8421 11.2635 86.2431 10.8075 86.5516C10.3515 86.8601 9.84196 87.0816 9.27898 87.2163V87.3845C9.89263 87.4182 10.4809 87.6061 11.0439 87.9482C11.6125 88.2848 12.077 88.7615 12.4373 89.3785C12.7976 89.9955 12.9778 90.7415 12.9778 91.6165C12.9778 92.5083 12.761 93.3104 12.3275 94.0227C11.894 94.7294 11.241 95.2875 10.3683 95.697C9.49573 96.1064 8.39791 96.3111 7.0749 96.3111H0.0742188ZM3.20722 93.703H6.57666C7.71389 93.703 8.53303 93.487 9.03408 93.0552C9.54076 92.6177 9.79411 92.0568 9.79411 91.3725C9.79411 90.8621 9.66744 90.4021 9.41409 89.9927C9.16075 89.5776 8.80044 89.2523 8.33317 89.0167C7.86589 88.7755 7.30854 88.6549 6.66111 88.6549H3.20722V93.703ZM3.20722 86.4086H6.30643C6.84689 86.4086 7.33387 86.3104 7.76737 86.1141C8.20087 85.9122 8.54147 85.6289 8.78918 85.2644C9.04253 84.8942 9.1692 84.4567 9.1692 83.9519C9.1692 83.2844 8.93274 82.7347 8.45984 82.3028C7.99256 81.8709 7.29728 81.655 6.37399 81.655H3.20722V86.4086Z" fill="white"/>
<path d="M26.6055 79.0805H29.7385V90.3376C29.7385 91.5716 29.4457 92.6569 28.8602 93.5936C28.2803 94.5303 27.464 95.2623 26.4112 95.7895C25.3585 96.3111 24.1283 96.5719 22.7209 96.5719C21.3078 96.5719 20.0749 96.3111 19.0221 95.7895C17.9693 95.2623 17.153 94.5303 16.5731 93.5936C15.9932 92.6569 15.7033 91.5716 15.7033 90.3376V79.0805H18.8363V90.0768C18.8363 90.7947 18.9939 91.4342 19.3092 91.9951C19.6301 92.556 20.0805 92.9963 20.6604 93.316C21.2402 93.6301 21.9271 93.7871 22.7209 93.7871C23.5147 93.7871 24.2015 93.6301 24.7814 93.316C25.3669 92.9963 25.8173 92.556 26.1326 91.9951C26.4478 91.4342 26.6055 90.7947 26.6055 90.0768V79.0805Z" fill="white"/>
<path d="M42.5428 83.8172C42.464 83.0825 42.1318 82.5104 41.5463 82.1009C40.9664 81.6915 40.212 81.4867 39.2831 81.4867C38.6301 81.4867 38.0699 81.5849 37.6026 81.7812C37.1353 81.9775 36.7778 82.2439 36.5301 82.5805C36.2824 82.917 36.1558 83.3012 36.1501 83.7331C36.1501 84.0921 36.2318 84.4034 36.395 84.667C36.5639 84.9306 36.7919 85.155 37.079 85.3401C37.3662 85.5196 37.6842 85.671 38.0333 85.7944C38.3823 85.9178 38.7342 86.0216 39.0889 86.1057L40.7103 86.5095C41.3633 86.661 41.9911 86.8657 42.5935 87.1237C43.2015 87.3817 43.7447 87.707 44.2233 88.0997C44.7074 88.4923 45.0903 88.9662 45.3718 89.5215C45.6533 90.0768 45.794 90.7274 45.794 91.4734C45.794 92.483 45.535 93.3721 45.0171 94.1405C44.4991 94.9033 43.7504 95.5006 42.7708 95.9325C41.7968 96.3588 40.6174 96.5719 39.2324 96.5719C37.8869 96.5719 36.7187 96.3644 35.7279 95.9494C34.7427 95.5343 33.9714 94.9285 33.414 94.1321C32.8623 93.3356 32.5639 92.3652 32.5189 91.221H35.6012C35.6463 91.8212 35.832 92.3204 36.1586 92.7186C36.4851 93.1168 36.9101 93.4141 37.4337 93.6104C37.9629 93.8067 38.5541 93.9049 39.2071 93.9049C39.8883 93.9049 40.4851 93.8039 40.9974 93.602C41.5153 93.3945 41.9207 93.1084 42.2134 92.7439C42.5062 92.3737 42.6554 91.9418 42.661 91.4482C42.6554 90.9995 42.5231 90.6293 42.2641 90.3376C42.0051 90.0404 41.642 89.7936 41.1747 89.5972C40.7131 89.3953 40.1726 89.2158 39.5533 89.0588L37.5857 88.554C36.1614 88.1894 35.0354 87.6369 34.2078 86.8965C33.3859 86.1506 32.9749 85.1606 32.9749 83.9266C32.9749 82.9114 33.2508 82.0224 33.8025 81.2596C34.3598 80.4968 35.117 79.905 36.0741 79.4844C37.0312 79.0581 38.1149 78.8449 39.3253 78.8449C40.5526 78.8449 41.6279 79.0581 42.5512 79.4844C43.4801 79.905 44.2092 80.4912 44.7384 81.2428C45.2676 81.9887 45.5407 82.8469 45.5576 83.8172H42.5428Z" fill="white"/>
<path d="M51.7201 79.0805V96.3111H48.5871V79.0805H51.7201Z" fill="white"/>
<path d="M69.3252 79.0805V96.3111H66.5385L58.3893 84.5745H58.2458V96.3111H55.1128V79.0805H57.9164L66.0571 90.8256H66.2091V79.0805H69.3252Z" fill="white"/>
<path d="M72.739 96.3111V79.0805H83.9874V81.6971H75.872V86.3749H83.4047V88.9915H75.872V93.6946H84.055V96.3111H72.739Z" fill="white"/>
<path d="M96.5827 83.8172C96.5039 83.0825 96.1718 82.5104 95.5863 82.1009C95.0064 81.6915 94.252 81.4867 93.3231 81.4867C92.67 81.4867 92.1098 81.5849 91.6426 81.7812C91.1753 81.9775 90.8178 82.2439 90.5701 82.5805C90.3224 82.917 90.1957 83.3012 90.1901 83.7331C90.1901 84.0921 90.2717 84.4034 90.435 84.667C90.6039 84.9306 90.8319 85.155 91.119 85.3401C91.4061 85.5196 91.7242 85.671 92.0732 85.7944C92.4223 85.9178 92.7742 86.0216 93.1288 86.1057L94.7502 86.5095C95.4033 86.661 96.031 86.8657 96.6334 87.1237C97.2414 87.3817 97.7847 87.707 98.2632 88.0997C98.7474 88.4923 99.1302 88.9662 99.4117 89.5215C99.6932 90.0768 99.834 90.7274 99.834 91.4734C99.834 92.483 99.575 93.3721 99.057 94.1405C98.5391 94.9033 97.7903 95.5006 96.8107 95.9325C95.8368 96.3588 94.6573 96.5719 93.2724 96.5719C91.9269 96.5719 90.7587 96.3644 89.7678 95.9494C88.7826 95.5343 88.0113 94.9285 87.454 94.1321C86.9023 93.3356 86.6039 92.3652 86.5588 91.221H89.6412C89.6862 91.8212 89.872 92.3204 90.1985 92.7186C90.525 93.1168 90.9501 93.4141 91.4737 93.6104C92.0029 93.8067 92.594 93.9049 93.2471 93.9049C93.9283 93.9049 94.525 93.8039 95.0373 93.602C95.5553 93.3945 95.9606 93.1084 96.2534 92.7439C96.5461 92.3737 96.6953 91.9418 96.701 91.4482C96.6953 90.9995 96.563 90.6293 96.3041 90.3376C96.0451 90.0404 95.682 89.7936 95.2147 89.5972C94.753 89.3953 94.2126 89.2158 93.5933 89.0588L91.6257 88.554C90.2013 88.1894 89.0754 87.6369 88.2478 86.8965C87.4258 86.1506 87.0149 85.1606 87.0149 83.9266C87.0149 82.9114 87.2907 82.0224 87.8424 81.2596C88.3998 80.4968 89.157 79.905 90.1141 79.4844C91.0711 79.0581 92.1549 78.8449 93.3653 78.8449C94.5926 78.8449 95.6679 79.0581 96.5912 79.4844C97.5201 79.905 98.2492 80.4912 98.7784 81.2428C99.3076 81.9887 99.5806 82.8469 99.5975 83.8172H96.5827Z" fill="white"/>
<path d="M112.026 83.8172C111.947 83.0825 111.615 82.5104 111.03 82.1009C110.45 81.6915 109.695 81.4867 108.766 81.4867C108.113 81.4867 107.553 81.5849 107.086 81.7812C106.619 81.9775 106.261 82.2439 106.013 82.5805C105.766 82.917 105.639 83.3012 105.633 83.7331C105.633 84.0921 105.715 84.4034 105.878 84.667C106.047 84.9306 106.275 85.155 106.562 85.3401C106.849 85.5196 107.167 85.671 107.517 85.7944C107.866 85.9178 108.217 86.0216 108.572 86.1057L110.194 86.5095C110.847 86.661 111.474 86.8657 112.077 87.1237C112.685 87.3817 113.228 87.707 113.707 88.0997C114.191 88.4923 114.574 88.9662 114.855 89.5215C115.137 90.0768 115.277 90.7274 115.277 91.4734C115.277 92.483 115.018 93.3721 114.5 94.1405C113.982 94.9033 113.234 95.5006 112.254 95.9325C111.28 96.3588 110.101 96.5719 108.716 96.5719C107.37 96.5719 106.202 96.3644 105.211 95.9494C104.226 95.5343 103.455 94.9285 102.897 94.1321C102.346 93.3356 102.047 92.3652 102.002 91.221H105.084C105.13 91.8212 105.315 92.3204 105.642 92.7186C105.968 93.1168 106.393 93.4141 106.917 93.6104C107.446 93.8067 108.037 93.9049 108.69 93.9049C109.372 93.9049 109.968 93.8039 110.481 93.602C110.999 93.3945 111.404 93.1084 111.697 92.7439C111.989 92.3737 112.139 91.9418 112.144 91.4482C112.139 90.9995 112.006 90.6293 111.747 90.3376C111.488 90.0404 111.125 89.7936 110.658 89.5972C110.196 89.3953 109.656 89.2158 109.037 89.0588L107.069 88.554C105.645 88.1894 104.519 87.6369 103.691 86.8965C102.869 86.1506 102.458 85.1606 102.458 83.9266C102.458 82.9114 102.734 82.0224 103.286 81.2596C103.843 80.4968 104.6 79.905 105.557 79.4844C106.514 79.0581 107.598 78.8449 108.809 78.8449C110.036 78.8449 111.111 79.0581 112.034 79.4844C112.963 79.905 113.692 80.4912 114.222 81.2428C114.751 81.9887 115.024 82.8469 115.041 83.8172H112.026Z" fill="white"/>
<path d="M11.7365 108.941C11.6448 108.049 11.2583 107.354 10.5771 106.857C9.9025 106.36 9.0248 106.111 7.94405 106.111C7.18425 106.111 6.53252 106.23 5.98887 106.469C5.44522 106.707 5.02929 107.03 4.7411 107.439C4.4529 107.848 4.30552 108.314 4.29897 108.839C4.29897 109.275 4.39394 109.653 4.58389 109.973C4.78039 110.293 5.04567 110.565 5.37972 110.79C5.71377 111.008 6.08385 111.192 6.48994 111.342C6.89605 111.491 7.30542 111.617 7.71807 111.72L9.60447 112.21C10.3643 112.394 11.0946 112.643 11.7954 112.956C12.5028 113.269 13.1349 113.664 13.6917 114.141C14.255 114.618 14.7004 115.193 15.0279 115.867C15.3554 116.542 15.5191 117.332 15.5191 118.238C15.5191 119.464 15.2178 120.543 14.6152 121.476C14.0126 122.402 13.1415 123.128 12.0018 123.652C10.8686 124.17 9.4964 124.429 7.8851 124.429C6.31965 124.429 4.96052 124.177 3.80772 123.673C2.66147 123.169 1.76412 122.433 1.11567 121.466C0.473769 120.499 0.126619 119.321 0.0742188 117.931H3.66034C3.71274 118.66 3.92889 119.266 4.30879 119.75C4.68869 120.233 5.18322 120.594 5.79237 120.833C6.40807 121.071 7.09582 121.19 7.85562 121.19C8.64817 121.19 9.34247 121.068 9.93852 120.822C10.5411 120.57 11.0127 120.223 11.3533 119.78C11.6939 119.331 11.8675 118.806 11.874 118.207C11.8675 117.662 11.7136 117.213 11.4123 116.858C11.111 116.497 10.6885 116.198 10.1448 115.959C9.60775 115.714 8.97894 115.496 8.25844 115.306L5.96922 114.693C4.31207 114.25 3.00207 113.579 2.03922 112.68C1.08292 111.774 0.604769 110.572 0.604769 109.074C0.604769 107.841 0.925719 106.761 1.56762 105.835C2.21607 104.909 3.09704 104.19 4.21054 103.679C5.32404 103.162 6.58492 102.903 7.99317 102.903C9.42107 102.903 10.6721 103.162 11.7463 103.679C12.8271 104.19 13.6753 104.902 14.291 105.815C14.9067 106.72 15.2244 107.763 15.244 108.941H11.7365Z" fill="white"/>
<path d="M35.992 110.249H32.3174C32.2126 109.622 32.0194 109.067 31.7377 108.583C31.4561 108.093 31.1057 107.677 30.6865 107.337C30.2673 106.996 29.7891 106.741 29.252 106.571C28.7215 106.394 28.1483 106.305 27.5326 106.305C26.4388 106.305 25.4694 106.591 24.6244 107.163C23.7795 107.729 23.1179 108.559 22.6398 109.656C22.1616 110.746 21.9226 112.077 21.9226 113.651C21.9226 115.251 22.1616 116.6 22.6398 117.696C23.1245 118.786 23.786 119.61 24.6244 120.168C25.4694 120.72 26.4355 120.996 27.5228 120.996C28.1254 120.996 28.6887 120.914 29.2127 120.751C29.7433 120.581 30.2181 120.332 30.6373 120.005C31.0631 119.678 31.4201 119.276 31.7083 118.8C32.003 118.323 32.2061 117.778 32.3174 117.165L35.992 117.185C35.8544 118.18 35.5564 119.113 35.0979 119.985C34.6459 120.856 34.0532 121.626 33.3196 122.293C32.586 122.954 31.7279 123.472 30.7454 123.846C29.7629 124.214 28.6723 124.398 27.4737 124.398C25.7052 124.398 24.1266 123.972 22.738 123.121C21.3494 122.27 20.2556 121.04 19.4565 119.433C18.6574 117.826 18.2578 115.898 18.2578 113.651C18.2578 111.396 18.6607 109.469 19.4663 107.868C20.272 106.261 21.3691 105.031 22.7577 104.18C24.1463 103.329 25.7183 102.903 27.4737 102.903C28.5937 102.903 29.6352 103.066 30.598 103.393C31.5609 103.72 32.4189 104.2 33.1722 104.834C33.9254 105.46 34.5444 106.23 35.0291 107.143C35.5204 108.049 35.8413 109.084 35.992 110.249Z" fill="white"/>
<path d="M39.33 124.112V103.189H42.9751V112.047H52.299V103.189H55.9539V124.112H52.299V115.224H42.9751V124.112H39.33Z" fill="white"/>
<path d="M77.8981 113.651C77.8981 115.905 77.4919 117.836 76.6797 119.443C75.8741 121.044 74.7737 122.27 73.3786 123.121C71.99 123.972 70.4147 124.398 68.6527 124.398C66.8908 124.398 65.3122 123.972 63.9171 123.121C62.5285 122.263 61.4281 121.033 60.6159 119.433C59.8102 117.826 59.4074 115.898 59.4074 113.651C59.4074 111.396 59.8102 109.469 60.6159 107.868C61.4281 106.261 62.5285 105.031 63.9171 104.18C65.3122 103.329 66.8908 102.903 68.6527 102.903C70.4147 102.903 71.99 103.329 73.3786 104.18C74.7737 105.031 75.8741 106.261 76.6797 107.868C77.4919 109.469 77.8981 111.396 77.8981 113.651ZM74.2333 113.651C74.2333 112.064 73.9943 110.725 73.5161 109.636C73.0445 108.539 72.3895 107.711 71.5511 107.153C70.7127 106.588 69.7466 106.305 68.6527 106.305C67.5589 106.305 66.5928 106.588 65.7544 107.153C64.916 107.711 64.2577 108.539 63.7795 109.636C63.3079 110.725 63.0721 112.064 63.0721 113.651C63.0721 115.237 63.3079 116.579 63.7795 117.676C64.2577 118.765 64.916 119.593 65.7544 120.158C66.5928 120.717 67.5589 120.996 68.6527 120.996C69.7466 120.996 70.7127 120.717 71.5511 120.158C72.3895 119.593 73.0445 118.765 73.5161 117.676C73.9943 116.579 74.2333 115.237 74.2333 113.651Z" fill="white"/>
<path d="M99.3239 113.651C99.3239 115.905 98.9178 117.836 98.1056 119.443C97.3 121.044 96.1996 122.27 94.8044 123.121C93.4158 123.972 91.8405 124.398 90.0786 124.398C88.3166 124.398 86.7381 123.972 85.3429 123.121C83.9543 122.263 82.854 121.033 82.0417 119.433C81.2361 117.826 80.8333 115.898 80.8333 113.651C80.8333 111.396 81.2361 109.469 82.0417 107.868C82.854 106.261 83.9543 105.031 85.3429 104.18C86.7381 103.329 88.3166 102.903 90.0786 102.903C91.8405 102.903 93.4158 103.329 94.8044 104.18C96.1996 105.031 97.3 106.261 98.1056 107.868C98.9178 109.469 99.3239 111.396 99.3239 113.651ZM95.6592 113.651C95.6592 112.064 95.4201 110.725 94.942 109.636C94.4704 108.539 93.8154 107.711 92.977 107.153C92.1386 106.588 91.1724 106.305 90.0786 106.305C88.9847 106.305 88.0186 106.588 87.1802 107.153C86.3418 107.711 85.6835 108.539 85.2054 109.636C84.7338 110.725 84.498 112.064 84.498 113.651C84.498 115.237 84.7338 116.579 85.2054 117.676C85.6835 118.765 86.3418 119.593 87.1802 120.158C88.0186 120.717 88.9847 120.996 90.0786 120.996C91.1724 120.996 92.1386 120.717 92.977 120.158C93.8154 119.593 94.4704 118.765 94.942 117.676C95.4201 116.579 95.6592 115.237 95.6592 113.651Z" fill="white"/>
<path d="M102.77 124.112V103.189H106.415V120.935H115.277V124.112H102.77Z" fill="white"/>
</svg>
