<svg width="1016" height="206" viewBox="0 0 1016 206" fill="none" xmlns="http://www.w3.org/2000/svg">
<path d="M0 67.0697H1015.63V143.721H0V67.0697Z" fill="#C81C1C"/>
<path d="M958.14 206C958.14 206 948.3 169.136 946.612 149.938C944.923 130.739 937.965 107.68 937.965 107.68L925.955 93.3358L937.965 78.1837C937.965 78.1837 944.923 62.3243 946.612 51.6173C948.3 40.9104 948.052 29.4953 948.052 29.4953L905.81 29.495V76.1635L896.093 84.2446V29.495H858.174V191.723H896.093V118.791L905.81 110.508V191.723C905.81 191.723 921.983 193.852 932.201 196.64C942.419 199.427 958.14 206 958.14 206Z" fill="white"/>
<path d="M837.945 191.723V108.69L820.17 93.3358L837.945 78.1837V29.495H752.39V191.723H790.309V118.791L800.026 110.508V191.723H837.945ZM790.309 84.2446V53.9404H800.026V76.1635L790.309 84.2446Z" fill="white"/>
<path d="M732.156 191.723V29.495H646.602V191.723H684.521V110.508L694.237 118.791V191.723H732.156ZM694.237 84.2446L684.521 76.1635V53.9404H694.237V84.2446Z" fill="white"/>
<path d="M540.815 191.723H578.734V118.791L588.451 110.508V191.723H626.37V29.495H588.451V76.1635L578.734 84.2446V29.495H540.815V191.723Z" fill="white"/>
<path d="M520.585 191.723V112.731L472.949 92.3257V53.9404H482.666V87.477L520.585 103.639V29.495H435.03V103.437L482.666 123.64V167.278H472.949V128.691L435.03 112.528V191.723H520.585Z" fill="white"/>
<path d="M414.798 191.723V108.69L397.023 93.3358L414.798 78.1837V29.495H329.243V191.723H414.798ZM376.879 167.278H367.162V118.791L376.879 110.508V167.278ZM367.162 84.2446V53.9404H376.879V76.1635L367.162 84.2446Z" fill="white"/>
<path d="M296.772 54.1428L315.732 29.6974H230.414V191.724H315.732V130.711L277.813 146.874V167.48H268.333V129.903L282.553 117.782V83.4368L268.333 95.5585V54.1428H296.772Z" fill="white"/>
<path fill-rule="evenodd" clip-rule="evenodd" d="M119.605 184.188L138.031 176.651L156.475 184.188L174.92 191.725H191.139H207.357V110.163V28.6015L201.342 28.7405C198.034 28.8171 189.016 28.8985 181.302 28.9216L167.277 28.9643L167.744 95.0859C168.014 133.31 167.902 161.207 167.477 161.207C167.073 161.207 164.68 160.381 162.161 159.371L157.579 157.534V92.9713V28.4089L151.565 27.5815C145.41 26.7352 121.88 22.0659 119.139 21.147C117.67 20.6547 117.621 22.4023 117.764 71.4245C117.845 99.3583 117.876 130.16 117.834 139.874L117.757 157.534L113.176 159.371C110.657 160.381 108.417 161.207 108.199 161.207C107.98 161.207 107.802 128.907 107.802 89.4286V17.6504L104.276 16.8047C97.5735 15.1968 84.1079 10.5113 70.9169 5.19647C63.6345 2.26271 57.5998 -0.0749512 57.5077 0.00236511C57.4148 0.0789948 57.6645 1.51535 58.0619 3.19382C62.0117 19.8721 65.594 46.0264 67.6822 73.4353C68.949 90.0647 69.0038 94.8946 68.1343 113.057C67.133 133.984 65.6944 149.431 63.3648 164.259C61.869 173.788 59.0027 188.834 58.3605 190.538C57.9416 191.648 59.3254 191.725 79.5458 191.725H101.179L119.605 184.188Z" fill="white"/>
<path d="M119.605 184.188L138.031 176.651L156.475 184.188L174.92 191.725H191.139H207.357V110.163V28.6015L201.342 28.7405C198.034 28.8171 189.016 28.8985 181.302 28.9216L167.277 28.9643L167.744 95.0859C168.014 133.31 167.902 161.207 167.477 161.207C167.073 161.207 164.68 160.381 162.161 159.371L157.579 157.534V92.9713V28.4089L151.565 27.5815C145.41 26.7352 121.88 22.0659 119.139 21.147C117.67 20.6547 117.621 22.4023 117.764 71.4245C117.845 99.3583 117.876 130.16 117.834 139.874L117.757 157.534L113.176 159.371C110.657 160.381 108.417 161.207 108.199 161.207C107.98 161.207 107.802 128.907 107.802 89.4286V17.6504L104.276 16.8047C97.5735 15.1968 84.1079 10.5113 70.9169 5.19647C63.6345 2.26271 57.5998 -0.0749512 57.5077 0.00236511C57.4148 0.0789948 57.6645 1.51535 58.0619 3.19382C62.0117 19.8721 65.594 46.0264 67.6822 73.4353C68.949 90.0647 69.0038 94.8946 68.1343 113.057C67.133 133.984 65.6944 149.431 63.3648 164.259C61.869 173.788 59.0027 188.834 58.3605 190.538C57.9416 191.648 59.3254 191.725 79.5458 191.725H101.179L119.605 184.188Z" fill="white"/>
</svg>
