<svg width="246" height="36" viewBox="0 0 246 36" fill="none" xmlns="http://www.w3.org/2000/svg">
<path d="M9.47809 35.5686L0 10.4021H3.2551L11.8716 33.747H10.3876L19.2434 10.4021H22.1634L30.9235 33.747H29.4395L38.1996 10.4021H41.3111L31.7851 35.5686H28.5779L20.1529 13.6138H21.1582L12.6853 35.5686H9.47809Z" fill="white"/>
<path d="M56.4022 35.8083C53.7854 35.8083 51.4876 35.265 49.509 34.1784C47.5305 33.0599 45.9827 31.5419 44.8657 29.6245C43.7488 27.6751 43.1903 25.4541 43.1903 22.9614C43.1903 20.4687 43.7169 18.2636 44.77 16.3462C45.855 14.4288 47.323 12.9268 49.174 11.8402C51.0568 10.7217 53.1631 10.1624 55.4927 10.1624C57.8542 10.1624 59.9445 10.7057 61.7636 11.7923C63.6145 12.8469 65.0665 14.3489 66.1197 16.2983C67.1728 18.2157 67.6993 20.4368 67.6993 22.9614C67.6993 23.1212 67.6834 23.2969 67.6515 23.4887C67.6515 23.6485 67.6515 23.8242 67.6515 24.016H45.7753V21.4754H65.8324L64.4921 22.482C64.4921 20.6605 64.0932 19.0466 63.2954 17.6405C62.5295 16.2024 61.4763 15.0839 60.136 14.285C58.7957 13.486 57.2479 13.0866 55.4927 13.0866C53.7694 13.0866 52.2216 13.486 50.8494 14.285C49.4771 15.0839 48.4081 16.2024 47.6422 17.6405C46.8763 19.0786 46.4933 20.7244 46.4933 22.5779V23.1052C46.4933 25.0226 46.9082 26.7164 47.7379 28.1864C48.5995 29.6245 49.7803 30.759 51.2802 31.5899C52.812 32.3888 54.5513 32.7883 56.4979 32.7883C58.0298 32.7883 59.4499 32.5166 60.7583 31.9734C62.0986 31.4301 63.2475 30.5992 64.2049 29.4807L66.1197 31.6858C65.0027 33.028 63.5985 34.0506 61.9072 34.7537C60.2477 35.4567 58.4127 35.8083 56.4022 35.8083Z" fill="white"/>
<path d="M87.5897 35.8083C85.3877 35.8083 83.4091 35.3129 81.6539 34.3222C79.8987 33.2996 78.5105 31.8296 77.4893 29.9121C76.4681 27.9947 75.9575 25.6778 75.9575 22.9614C75.9575 20.213 76.4681 17.8961 77.4893 16.0107C78.5424 14.0932 79.9466 12.6391 81.7018 11.6485C83.457 10.6578 85.4196 10.1624 87.5897 10.1624C89.9832 10.1624 92.1213 10.7057 94.0042 11.7923C95.919 12.8469 97.4189 14.3329 98.5039 16.2503C99.5889 18.1678 100.131 20.4048 100.131 22.9614C100.131 25.486 99.5889 27.723 98.5039 29.6724C97.4189 31.5899 95.919 33.0919 94.0042 34.1784C92.1213 35.265 89.9832 35.8083 87.5897 35.8083ZM74.6172 35.5686V0H78.0159V17.8322L77.5372 22.9134L77.8723 27.9947V35.5686H74.6172ZM87.3504 32.7883C89.1375 32.7883 90.7331 32.3888 92.1373 31.5899C93.5415 30.759 94.6584 29.6085 95.4881 28.1385C96.3179 26.6365 96.7327 24.9108 96.7327 22.9614C96.7327 20.98 96.3179 19.2543 95.4881 17.7843C94.6584 16.3142 93.5415 15.1798 92.1373 14.3808C90.7331 13.5499 89.1375 13.1345 87.3504 13.1345C85.5633 13.1345 83.9517 13.5499 82.5156 14.3808C81.1114 15.1798 79.9945 16.3142 79.1647 17.7843C78.3669 19.2543 77.968 20.98 77.968 22.9614C77.968 24.9108 78.3669 26.6365 79.1647 28.1385C79.9945 29.6085 81.1114 30.759 82.5156 31.5899C83.9517 32.3888 85.5633 32.7883 87.3504 32.7883Z" fill="white"/>
<path d="M114.671 36C112.469 36 110.315 35.7443 108.209 35.233C106.134 34.7217 104.459 34.0826 103.182 33.3156L105.911 27.0839C107.124 27.8189 108.544 28.4101 110.171 28.8575C111.799 29.273 113.394 29.4807 114.958 29.4807C116.49 29.4807 117.543 29.3209 118.118 29.0013C118.724 28.6818 119.027 28.2503 119.027 27.7071C119.027 27.1957 118.74 26.8282 118.165 26.6045C117.623 26.3489 116.889 26.1571 115.963 26.0293C115.07 25.9015 114.081 25.7577 112.996 25.5979C111.91 25.4381 110.809 25.2304 109.693 24.9747C108.608 24.6871 107.602 24.2716 106.677 23.7284C105.783 23.1531 105.065 22.3862 104.523 21.4274C103.98 20.4687 103.709 19.2543 103.709 17.7843C103.709 16.1225 104.188 14.6525 105.145 13.3742C106.134 12.0639 107.57 11.0413 109.453 10.3063C111.336 9.53928 113.634 9.15579 116.346 9.15579C118.165 9.15579 120 9.34754 121.851 9.73102C123.734 10.0826 125.314 10.6258 126.59 11.3609L123.862 17.5446C122.585 16.8096 121.309 16.3142 120.032 16.0586C118.756 15.771 117.543 15.6272 116.394 15.6272C114.862 15.6272 113.777 15.8029 113.139 16.1545C112.533 16.506 112.23 16.9374 112.23 17.4487C112.23 17.9601 112.501 18.3595 113.043 18.6471C113.586 18.9028 114.304 19.1105 115.198 19.2703C116.123 19.3981 117.128 19.5419 118.213 19.7017C119.298 19.8296 120.383 20.0373 121.468 20.3249C122.585 20.6125 123.591 21.0439 124.484 21.6192C125.41 22.1624 126.144 22.9134 126.686 23.8722C127.229 24.7989 127.5 25.9973 127.5 27.4674C127.5 29.0652 127.005 30.5033 126.016 31.7816C125.059 33.0599 123.622 34.0826 121.708 34.8495C119.825 35.6165 117.479 36 114.671 36Z" fill="white"/>
<path d="M148.317 9.15579C150.327 9.15579 152.147 9.57124 153.774 10.4021C155.402 11.2011 156.678 12.4474 157.604 14.1411C158.561 15.8349 159.04 18.024 159.04 20.7084V35.5686H149.945V22.1944C149.945 20.3409 149.562 18.9987 148.796 18.1678C148.062 17.3049 147.025 16.8735 145.684 16.8735C144.727 16.8735 143.849 17.0972 143.051 17.5446C142.254 17.9601 141.631 18.6152 141.184 19.51C140.738 20.4048 140.514 21.5712 140.514 23.0093V35.5686H131.419V0H140.514V16.9694L138.408 14.8123C139.397 12.9268 140.754 11.5206 142.477 10.5939C144.2 9.63515 146.147 9.15579 148.317 9.15579Z" fill="white"/>
<path d="M180.595 35.5686V30.727L179.972 29.5286V20.6125C179.972 19.1744 179.526 18.0719 178.632 17.3049C177.77 16.506 176.382 16.1065 174.467 16.1065C173.223 16.1065 171.962 16.3142 170.686 16.7297C169.409 17.1132 168.324 17.6565 167.431 18.3595L164.367 12.1758C165.835 11.217 167.59 10.482 169.633 9.97071C171.707 9.42743 173.765 9.15579 175.808 9.15579C180.02 9.15579 183.275 10.1305 185.573 12.0799C187.903 13.9973 189.067 17.0173 189.067 21.1398V35.5686H180.595ZM172.936 36C170.861 36 169.106 35.6485 167.67 34.9454C166.234 34.2423 165.133 33.2836 164.367 32.0692C163.633 30.8549 163.266 29.4967 163.266 27.9947C163.266 26.3968 163.665 25.0226 164.463 23.8722C165.292 22.6897 166.553 21.7949 168.244 21.1877C169.936 20.5486 172.122 20.229 174.802 20.229H180.93V24.9747H176.047C174.579 24.9747 173.542 25.2144 172.936 25.6937C172.361 26.1731 172.074 26.8123 172.074 27.6112C172.074 28.4101 172.377 29.0493 172.983 29.5286C173.59 30.008 174.42 30.2477 175.473 30.2477C176.462 30.2477 177.355 30.008 178.153 29.5286C178.983 29.0173 179.589 28.2503 179.972 27.2277L181.217 30.5832C180.738 32.3728 179.797 33.731 178.393 34.6578C177.02 35.5526 175.201 36 172.936 36Z" fill="white"/>
<path d="M194.808 35.5686V9.58722H203.473V17.1611L202.18 15.004C202.946 13.0546 204.191 11.6005 205.914 10.6418C207.637 9.65113 209.728 9.15579 212.185 9.15579V17.3529C211.77 17.2889 211.403 17.257 211.084 17.257C210.797 17.225 210.478 17.2091 210.127 17.2091C208.276 17.2091 206.776 17.7204 205.627 18.743C204.478 19.7337 203.904 21.3635 203.904 23.6325V35.5686H194.808Z" fill="white"/>
<path d="M223.501 30.775L223.741 19.8935L234.32 9.58722H245.09L233.363 21.715L228.719 25.4541L223.501 30.775ZM215.938 35.5686V0H225.033V35.5686H215.938ZM234.99 35.5686L227.044 25.5979L232.692 18.5992L246 35.5686H234.99Z" fill="white"/>
</svg>
