<svg width="8" height="9" viewBox="0 0 8 9" fill="none" xmlns="http://www.w3.org/2000/svg">
<path fill-rule="evenodd" clip-rule="evenodd" d="M6.85202 0.696667C6.97826 0.570617 7.14941 0.499874 7.32781 0.5C7.50621 0.500126 7.67726 0.571111 7.80332 0.69734C7.92938 0.823568 8.00013 0.994699 8 1.17309C7.99987 1.35147 7.92888 1.52251 7.80265 1.64856L2.29521 7.15552H6.01703C6.19534 7.15552 6.36634 7.22635 6.49241 7.35242C6.61849 7.47849 6.68933 7.64947 6.68933 7.82776C6.68933 8.00605 6.61849 8.17704 6.49241 8.30311C6.36634 8.42918 6.19534 8.5 6.01703 8.5H0.672294C0.493991 8.5 0.32299 8.42918 0.19691 8.30311C0.0708309 8.17704 0 8.00605 0 7.82776V2.48347C0 2.30519 0.0708309 2.1342 0.19691 2.00813C0.32299 1.88206 0.493991 1.81124 0.672294 1.81124C0.850598 1.81124 1.0216 1.88206 1.14768 2.00813C1.27376 2.1342 1.34459 2.30519 1.34459 2.48347V6.20498L6.85202 0.696667Z" fill="#CCCCCC"/>
</svg>
