<svg width="32" height="32" viewBox="0 0 32 32" fill="none" xmlns="http://www.w3.org/2000/svg">
<path d="M29.692 8.7565C29.8387 8.61491 29.9385 8.43459 29.9789 8.2383C30.0194 8.04202 29.9986 7.83859 29.9192 7.65369C29.8398 7.4688 29.7054 7.31074 29.5329 7.19948C29.3604 7.08821 29.1575 7.02874 28.95 7.02856H25.1V3.31619C25.0998 3.11607 25.0381 2.92049 24.9227 2.75416C24.8074 2.58782 24.6434 2.45819 24.4517 2.38163C24.2599 2.30507 24.049 2.28503 23.8454 2.32402C23.6418 2.36301 23.4548 2.4593 23.308 2.60071L19.808 5.9756C19.611 6.16529 19.5002 6.42264 19.5 6.69107V10.5195L16.7252 13.1952C16.3103 13.0887 15.8757 13.0756 15.4547 13.1567C15.0338 13.2378 14.6378 13.411 14.2972 13.663C13.9566 13.9149 13.6806 14.2389 13.4903 14.61C13.3001 14.9811 13.2008 15.3893 13.2 15.8033C13.2002 16.1875 13.2854 16.5673 13.45 16.9172C13.6146 17.2671 13.8547 17.5791 14.1544 17.8324C14.4541 18.0857 14.8063 18.2743 15.1877 18.3858C15.569 18.4973 15.9706 18.529 16.3657 18.4788C16.7608 18.4286 17.1402 18.2977 17.4786 18.0948C17.817 17.8919 18.1065 17.6217 18.328 17.3022C18.5494 16.9828 18.6975 16.6214 18.7625 16.2423C18.8275 15.8633 18.8078 15.4752 18.7048 15.104L21.4796 12.4284H25.45C25.7284 12.4281 25.9953 12.3213 26.192 12.1314L29.692 8.7565ZM16 2.30372C17.6348 2.30167 19.2573 2.57627 20.7936 3.11504L18.8168 5.02118C18.73 5.10488 18.6488 5.19667 18.5774 5.29117C16.2058 4.75108 13.7162 4.97157 11.4863 5.91919C9.25635 6.86682 7.4078 8.48987 6.22102 10.5421C5.03424 12.5944 4.574 14.9639 4.91012 17.2912C5.24623 19.6185 6.36035 21.7766 8.08347 23.4381C9.8066 25.0997 12.0447 26.174 14.4583 26.4981C16.8719 26.8222 19.3292 26.3784 21.4576 25.234C23.5859 24.0897 25.2691 22.3072 26.2519 20.157C27.2346 18.0068 27.4633 15.6062 26.9032 13.3193C27.0012 13.2492 27.095 13.1709 27.1832 13.0872L29.1572 11.181C29.7164 12.6624 30.0016 14.2268 30 15.8033C30 23.2591 23.7322 29.3028 16 29.3028C8.2678 29.3028 2 23.2591 2 15.8033C2 8.34747 8.2678 2.30372 16 2.30372ZM16 7.70354C16.7252 7.70354 17.428 7.79264 18.1 7.96003V9.96066L17.5204 10.5195C17.4971 10.5417 17.4743 10.5642 17.4518 10.587C16.622 10.3737 15.7524 10.3469 14.9102 10.5089C14.068 10.6709 13.2756 11.0173 12.5942 11.5213C11.9128 12.0253 11.3606 12.6736 10.9802 13.416C10.5997 14.1584 10.4012 14.9752 10.4 15.8033C10.4006 16.5717 10.5712 17.3311 10.9005 18.0309C11.2298 18.7306 11.7102 19.3545 12.3096 19.8609C12.909 20.3673 13.6135 20.7445 14.3762 20.9673C15.1389 21.1901 15.9421 21.2534 16.7321 21.1529C17.5222 21.0525 18.2809 20.7906 18.9576 20.3847C19.6343 19.9789 20.2133 19.4385 20.6561 18.7996C21.0989 18.1607 21.3951 17.438 21.525 16.6799C21.655 15.9218 21.6156 15.1456 21.4096 14.4034L21.4796 14.3372L22.0592 13.7783H24.1354C24.5733 15.4138 24.47 17.1404 23.84 18.7165C23.2099 20.2926 22.0846 21.6394 20.6215 22.5683C19.1584 23.4972 17.4307 23.9618 15.6802 23.897C13.9298 23.8323 12.2441 23.2415 10.859 22.2073C9.47402 21.1731 8.45897 19.7472 7.95593 18.1292C7.45288 16.5112 7.48703 14.782 8.05358 13.1837C8.62013 11.5853 9.69074 10.1977 11.1156 9.2151C12.5404 8.23247 14.2482 7.70397 16 7.70354Z" fill="#F60400"/>
</svg>
