<svg width="24" height="29" viewBox="0 0 24 29" fill="none" xmlns="http://www.w3.org/2000/svg">
<path d="M24 13.3709C24 20.5063 18.88 27.179 12 28.7989C5.12 27.179 0 20.5063 0 13.3709V5.65684L12 0.51416L24 5.65684V13.3709ZM12 26.2276C17 24.9419 21.3333 19.2078 21.3333 13.6537V7.32822L12 3.31692L2.66667 7.32822V13.6537C2.66667 19.2078 7 24.9419 12 26.2276ZM16.0667 19.7992L11.96 17.4207L7.86667 19.7992L8.94667 15.2994L5.33333 12.2909L10.1067 11.8924L11.96 7.64964L13.8267 11.8795L18.6 12.2781L14.9733 15.2994L16.0667 19.7992Z" fill="#F60400"/>
</svg>
