<svg width="103" height="65" viewBox="0 0 103 65" fill="none" xmlns="http://www.w3.org/2000/svg">
<path d="M17.1595 45.2322V53.4117H14.5273V33.3589H21.3711C23.082 33.3589 24.5297 33.8866 25.8458 35.0739C27.0303 36.2613 27.6883 37.5805 27.6883 39.2956C27.6883 41.0106 27.0303 42.4618 25.8458 43.5172C24.6613 44.7045 23.2136 45.2322 21.3711 45.2322H17.1595ZM17.1595 35.7336V42.7256H21.5027C22.5555 42.7256 23.3452 42.3299 24.0033 41.6702C24.6613 41.0106 25.0561 40.219 25.0561 39.1636C25.0561 38.2402 24.6613 37.4486 24.0033 36.789C23.3452 36.1293 22.4239 35.7336 21.5027 35.7336H17.1595Z" fill="white"/>
<path d="M34.5306 39.1636C36.3732 39.1636 37.9525 39.6913 39.0053 40.7467C40.0582 41.8021 40.7163 43.1214 40.7163 44.9683V53.4116H38.2157V51.5646H38.0841C37.0312 53.1477 35.5835 53.9393 33.8726 53.9393C32.4249 53.9393 31.1088 53.5435 30.0559 52.62C29.003 51.6966 28.4766 50.6411 28.4766 49.3219C28.4766 47.8707 29.003 46.8153 30.0559 45.8918C31.1088 45.1003 32.5565 44.5725 34.399 44.5725C35.9783 44.5725 37.1628 44.8364 38.2157 45.3641V44.8364C38.2157 43.9129 37.8209 43.1214 37.1628 42.5937C36.5048 41.934 35.5835 41.6702 34.6622 41.6702C33.2145 41.6702 32.03 42.3298 31.2404 43.5171L29.003 41.934C30.3191 40.0871 32.1616 39.1636 34.5306 39.1636ZM31.2404 49.19C31.2404 49.8496 31.5036 50.3773 32.03 50.905C32.5565 51.3008 33.2145 51.5646 34.0042 51.5646C35.0571 51.5646 36.1099 51.1689 36.8996 50.3773C37.6893 49.5857 38.2157 48.6623 38.2157 47.6068C37.426 46.9472 36.2415 46.6834 34.9254 46.6834C33.8726 46.6834 32.9513 46.9472 32.2932 47.4749C31.6352 47.7388 31.2404 48.3984 31.2404 49.19Z" fill="white"/>
<path d="M43.6133 39.6915H46.1139V41.9342H46.2455C47.0351 40.2192 48.6145 39.2957 50.9834 39.2957H51.5099V41.9342L50.3254 41.8023C49.1409 41.8023 48.088 42.198 47.43 42.8577C46.6403 43.6492 46.2455 44.5727 46.2455 45.6281V53.1479H43.6133V39.6915ZM59.6697 53.5437C58.6168 53.5437 57.5639 53.1479 56.9059 52.4883C56.1162 51.8287 55.853 50.7732 55.7214 49.5859V41.9342H53.3524V39.5595H55.7214V35.3379H58.3536V39.5595H61.6438V41.9342H58.3536V48.7944C58.3536 49.7178 58.4852 50.3775 58.88 50.6413C59.2749 50.9052 59.6697 51.169 60.0645 51.169C60.3277 51.169 60.4593 51.169 60.7226 51.0371C60.8542 51.0371 61.1174 50.9052 61.249 50.9052L62.0387 53.1479C61.3806 53.4118 60.591 53.5437 59.6697 53.5437Z" fill="white"/>
<path d="M64.2749 39.6913H66.7755V41.5382H66.9071C67.302 40.8786 67.96 40.3509 68.7497 39.8232C69.5393 39.4274 70.4606 39.1636 71.2503 39.1636C72.9612 39.1636 74.2773 39.6913 75.0669 40.6148C75.9882 41.5382 76.383 42.9894 76.383 44.7045V53.2797H73.7509V44.8364C73.7509 42.5937 72.5664 41.5382 70.329 41.5382C69.2761 41.5382 68.4865 41.934 67.6968 42.7256C67.0387 43.5171 66.6439 44.5725 66.6439 45.7599V53.4116H64.0117V39.6913H64.2749Z" fill="white"/>
<path d="M85.5964 53.8075C83.6223 53.8075 81.9113 53.1478 80.5952 51.6966C79.2791 50.3774 78.6211 48.5304 78.6211 46.4196C78.6211 44.3088 79.2791 42.5937 80.4636 41.1426C81.7797 39.6914 83.3591 39.0317 85.3332 39.0317C87.3074 39.0317 89.0183 39.6914 90.2028 41.0106C91.3873 42.3299 92.0453 44.1769 92.0453 46.5515V46.8154H81.2533C81.2533 48.1346 81.7797 49.19 82.5694 50.1135C83.4907 50.9051 84.4119 51.3009 85.5964 51.3009C87.1757 51.3009 88.4918 50.5093 89.4131 48.7943L91.6505 49.8497C90.9924 51.037 90.2028 51.9605 89.1499 52.6201C88.2286 53.5436 86.9125 53.8075 85.5964 53.8075ZM81.3849 44.8365H89.2815C89.1499 43.913 88.7551 43.1214 88.097 42.4618C87.439 41.8022 86.5177 41.5383 85.3332 41.5383C84.4119 41.5383 83.4907 41.8022 82.8326 42.4618C82.1746 42.9895 81.6481 43.7811 81.3849 44.8365Z" fill="white"/>
<path d="M96.9134 53.4115H94.2812V39.6912H96.7818V41.9339H96.9134C97.1767 41.1424 97.7031 40.6147 98.4928 40.087C99.2824 39.5593 100.072 39.2954 100.862 39.2954C101.651 39.2954 102.178 39.4273 102.704 39.6912L101.915 42.1978C101.651 42.0659 101.125 42.0659 100.467 42.0659C99.5457 42.0659 98.6244 42.4616 97.9663 43.2532C97.3083 44.0448 96.9134 44.9682 96.9134 46.0236V53.4115Z" fill="white"/>
<path d="M20.4489 19.6728V21.3879H24.6604C24.5288 22.4433 24.0024 23.3668 23.3443 24.0264C22.5546 24.686 21.6334 24.9499 20.5805 24.9499C19.2644 24.9499 18.2115 24.5541 17.2902 23.6306C16.369 22.7071 15.9741 21.6517 15.9741 20.3325C15.9741 19.0132 16.369 17.9578 17.2902 17.0343C18.2115 16.1108 19.2644 15.715 20.5805 15.715C21.765 15.715 22.8179 16.1108 23.7391 16.9024L24.9236 15.715C23.7391 14.5277 22.2914 14 20.5805 14C19.396 14 18.3431 14.2639 17.2902 14.9235C16.2374 15.4512 15.4477 16.2427 14.9213 17.2982C14.3948 18.2216 14 19.277 14 20.4644C14 21.6517 14.2632 22.7071 14.9213 23.6306C15.4477 24.5541 16.2374 25.3456 17.2902 26.0053C18.3431 26.533 19.396 26.9288 20.5805 26.9288C22.2914 26.9288 23.7391 26.4011 24.9236 25.3456C25.8449 23.8945 26.3713 22.5752 26.3713 20.7282C26.3713 20.3325 26.3713 19.9367 26.3713 19.6728H20.4489Z" fill="white"/>
<path d="M31.1112 18.3535C29.9267 18.3535 29.0054 18.7493 28.2157 19.5409C27.4261 20.3324 27.0312 21.2559 27.0312 22.4432C27.0312 23.6306 27.4261 24.554 28.2157 25.3456C29.0054 26.1372 29.9267 26.5329 31.1112 26.5329C32.2956 26.5329 33.2169 26.1372 34.0066 25.3456C34.7962 24.554 35.1911 23.6306 35.1911 22.4432C35.1911 21.2559 34.7962 20.3324 34.0066 19.5409C33.3485 18.7493 32.2956 18.3535 31.1112 18.3535ZM32.8221 24.2902C32.4273 24.8179 31.7692 24.9498 31.2428 24.9498C30.5847 24.9498 30.0583 24.686 29.5318 24.2902C29.137 23.7625 28.8738 23.2348 28.8738 22.5752C28.8738 21.7836 29.137 21.2559 29.5318 20.8601C29.9267 20.3324 30.5847 20.2005 31.2428 20.2005C31.9008 20.2005 32.4273 20.4643 32.9537 20.8601C33.3485 21.2559 33.6117 21.9155 33.6117 22.5752C33.4801 23.2348 33.2169 23.7625 32.8221 24.2902Z" fill="white"/>
<path d="M55.9832 14.2637H54.1406V26.4009H55.9832V14.2637Z" fill="white"/>
<path d="M40.1893 18.3535C39.0048 18.3535 38.0835 18.7493 37.2939 19.5409C36.5042 20.3324 36.1094 21.2559 36.1094 22.4432C36.1094 23.6306 36.5042 24.554 37.2939 25.3456C38.0835 26.1372 39.0048 26.5329 40.1893 26.5329C41.3738 26.5329 42.295 26.1372 43.0847 25.3456C43.8744 24.554 44.2692 23.6306 44.2692 22.4432C44.2692 21.2559 43.8744 20.3324 43.0847 19.5409C42.295 18.7493 41.3738 18.3535 40.1893 18.3535ZM41.7686 24.2902C41.3738 24.8179 40.7157 24.9498 40.1893 24.9498C39.5312 24.9498 39.0048 24.686 38.4784 24.2902C38.0835 23.7625 37.8203 23.2348 37.8203 22.5752C37.8203 21.7836 38.0835 21.2559 38.4784 20.8601C38.8732 20.3324 39.5312 20.2005 40.1893 20.2005C40.8473 20.2005 41.3738 20.4643 41.9002 20.8601C42.295 21.2559 42.5583 21.9155 42.5583 22.5752C42.4266 23.2348 42.295 23.7625 41.7686 24.2902Z" fill="white"/>
<path d="M60.9862 24.9497C60.0649 24.9497 59.4068 24.554 59.012 23.7624L64.5396 21.5197L64.408 20.9919C64.2764 20.5962 64.0132 20.2004 63.8816 19.9365C63.6184 19.6727 63.3551 19.2769 63.0919 19.145C62.5655 18.8811 62.3023 18.7492 61.9074 18.6173C61.5126 18.4854 61.1178 18.4854 60.7229 18.4854C59.6701 18.4854 58.7488 18.8811 57.9591 19.6727C57.1695 20.4642 56.9062 21.3877 56.9062 22.5751C56.9062 23.7624 57.3011 24.6859 58.0907 25.4774C58.8804 26.269 59.8017 26.6648 60.9862 26.6648C62.4339 26.6648 63.6184 26.0051 64.408 24.8178L62.9603 23.8943C62.4339 24.6859 61.7758 24.9497 60.9862 24.9497ZM59.2752 20.7281C59.6701 20.2004 60.1965 19.9365 60.8545 19.9365C61.2494 19.9365 61.5126 20.0685 61.7758 20.2004C62.039 20.3323 62.3023 20.5962 62.3023 20.86L58.6172 22.4431C58.6172 21.6516 58.8804 21.1239 59.2752 20.7281Z" fill="white"/>
<path d="M51.2443 19.277C50.7178 18.6174 49.9282 18.3535 49.0069 18.3535C47.954 18.3535 47.0327 18.7493 46.2431 19.5409C45.4534 20.3324 45.0586 21.3878 45.0586 22.4432C45.0586 23.6306 45.4534 24.554 46.2431 25.3456C47.0327 26.1372 47.954 26.5329 49.0069 26.5329C49.9282 26.5329 50.7178 26.2691 51.1126 25.6095V26.0052C51.1126 27.7203 50.323 28.6438 48.8753 28.6438C48.3488 28.6438 47.954 28.5118 47.6908 28.248C47.296 27.9841 47.0327 27.5883 46.9011 27.1926L45.3218 27.8522C45.4534 28.248 45.7166 28.5118 45.9799 28.9076C46.2431 29.1715 46.5063 29.4353 46.7695 29.6992C47.0327 29.963 47.4276 30.0949 47.8224 30.2269C48.2172 30.3588 48.6121 30.3588 49.0069 30.3588C50.1914 30.3588 51.2443 29.963 51.9023 29.3034C52.5604 28.5118 52.9552 27.4564 52.9552 26.1372V18.6174H51.2443V19.277ZM50.7178 24.2902C50.323 24.8179 49.7965 24.9498 49.1385 24.9498C48.4804 24.9498 47.954 24.686 47.5592 24.2902C47.1643 23.7625 46.9011 23.2348 46.9011 22.5752C46.9011 21.9155 47.1643 21.2559 47.5592 20.8601C47.954 20.3324 48.6121 20.0686 49.1385 20.0686C49.7965 20.0686 50.323 20.3324 50.7178 20.7282C51.1126 21.2559 51.3759 21.7836 51.3759 22.5752C51.3759 23.2348 51.1126 23.7625 50.7178 24.2902Z" fill="white"/>
<rect width="3" height="65" fill="white"/>
</svg>
