<svg width="105" height="54" viewBox="0 0 105 54" fill="none" xmlns="http://www.w3.org/2000/svg">
<path d="M18.3373 38.2877V46.4671H15.6797V26.4143H22.5894C24.3168 26.4143 25.7785 26.942 27.1073 28.1293C28.3032 29.3167 28.9676 30.6359 28.9676 32.351C28.9676 34.066 28.3032 35.5172 27.1073 36.5726C25.9114 37.76 24.4497 38.2877 22.5894 38.2877H18.3373ZM18.3373 28.789V35.7811H22.7223C23.7853 35.7811 24.5826 35.3853 25.247 34.7257C25.9114 34.066 26.31 33.2745 26.31 32.2191C26.31 31.2956 25.9114 30.504 25.247 29.8444C24.5826 29.1848 23.6524 28.789 22.7223 28.789H18.3373Z" fill="white"/>
<path d="M35.8742 32.219C37.7345 32.219 39.329 32.7467 40.392 33.8021C41.4551 34.8575 42.1195 36.1768 42.1195 38.0237V46.467H39.5948V44.62H39.4619C38.3989 46.2032 36.9372 46.9947 35.2098 46.9947C33.7481 46.9947 32.4193 46.5989 31.3563 45.6755C30.2932 44.752 29.7617 43.6966 29.7617 42.3773C29.7617 40.9261 30.2932 39.8707 31.3563 38.9472C32.4193 38.1557 33.881 37.628 35.7413 37.628C37.3358 37.628 38.5317 37.8918 39.5948 38.4195V37.8918C39.5948 36.9683 39.1961 36.1768 38.5317 35.6491C37.8673 34.9894 36.9372 34.7256 36.007 34.7256C34.5454 34.7256 33.3495 35.3852 32.5522 36.5726L30.2932 34.9894C31.622 33.1425 33.4823 32.219 35.8742 32.219ZM32.5522 42.2454C32.5522 42.905 32.8179 43.4327 33.3494 43.9604C33.881 44.3562 34.5454 44.62 35.3426 44.62C36.4057 44.62 37.4687 44.2243 38.266 43.4327C39.0632 42.6412 39.5948 41.7177 39.5948 40.6623C38.7975 40.0026 37.6016 39.7388 36.2728 39.7388C35.2098 39.7388 34.2796 40.0026 33.6152 40.5303C32.9508 40.7942 32.5522 41.4538 32.5522 42.2454Z" fill="white"/>
<path d="M45.0469 32.7466H47.5716V34.9894H47.7045C48.5017 33.2743 50.0963 32.3508 52.4881 32.3508H53.0196V34.9894L51.8237 34.8574C50.6278 34.8574 49.5648 35.2532 48.9004 35.9129C48.1031 36.7044 47.7045 37.6279 47.7045 38.6833V46.2031H45.0469V32.7466ZM61.2581 46.5989C60.1951 46.5989 59.132 46.2031 58.4677 45.5435C57.6704 44.8838 57.4046 43.8284 57.2717 42.6411V34.9894H54.8799V32.6147H57.2717V28.3931H59.9293V32.6147H63.2513V34.9894H59.9293V41.8495C59.9293 42.773 60.0622 43.4326 60.4608 43.6965C60.8595 43.9603 61.2581 44.2242 61.6567 44.2242C61.9225 44.2242 62.0554 44.2242 62.3211 44.0923C62.454 44.0923 62.7198 43.9603 62.8527 43.9603L63.6499 46.2031C62.9855 46.4669 62.1883 46.5989 61.2581 46.5989Z" fill="white"/>
<path d="M65.9064 32.7467H68.4311V34.5937H68.564C68.9626 33.934 69.627 33.4063 70.4243 32.8786C71.2215 32.4828 72.1517 32.219 72.949 32.219C74.6764 32.219 76.0052 32.7467 76.8025 33.6702C77.7326 34.5937 78.1312 36.0449 78.1312 37.7599V46.3351H75.4737V37.8918C75.4737 35.6491 74.2778 34.5937 72.0188 34.5937C70.9558 34.5937 70.1585 34.9894 69.3612 35.781C68.6968 36.5726 68.2982 37.628 68.2982 38.8153V46.467H65.6406V32.7467H65.9064Z" fill="white"/>
<path d="M87.4332 46.8629C85.44 46.8629 83.7126 46.2033 82.3838 44.7521C81.055 43.4328 80.3906 41.5858 80.3906 39.475C80.3906 37.3642 81.055 35.6492 82.2509 34.198C83.5797 32.7468 85.1743 32.0872 87.1675 32.0872C89.1606 32.0872 90.8881 32.7468 92.084 34.066C93.2799 35.3853 93.9443 37.2323 93.9443 39.6069V39.8708H83.0482C83.0482 41.1901 83.5797 42.2455 84.377 43.169C85.3071 43.9605 86.2373 44.3563 87.4332 44.3563C89.0278 44.3563 90.3566 43.5647 91.2867 41.8497L93.5456 42.9051C92.8813 44.0924 92.084 45.0159 91.0209 45.6755C90.0908 46.599 88.762 46.8629 87.4332 46.8629ZM83.1811 37.8919H91.1538C91.021 36.9684 90.6223 36.1769 89.9579 35.5172C89.2935 34.8576 88.3634 34.5938 87.1675 34.5938C86.2373 34.5938 85.3072 34.8576 84.6428 35.5172C83.9784 36.0449 83.4468 36.8365 83.1811 37.8919Z" fill="white"/>
<path d="M98.8607 46.4672H96.2031V32.7469H98.7278V34.9896H98.8607C99.1265 34.198 99.658 33.6703 100.455 33.1426C101.253 32.6149 102.05 32.3511 102.847 32.3511C103.644 32.3511 104.176 32.483 104.707 32.7469L103.91 35.2534C103.644 35.1215 103.113 35.1215 102.448 35.1215C101.518 35.1215 100.588 35.5173 99.9237 36.3089C99.2593 37.1004 98.8607 38.0239 98.8607 39.0793V46.4672V46.4672Z" fill="white"/>
<path d="M21.6556 12.6728V14.3879H25.9077C25.7748 15.4433 25.2433 16.3668 24.5789 17.0264C23.7817 17.686 22.8515 17.9499 21.7885 17.9499C20.4597 17.9499 19.3967 17.5541 18.4665 16.6306C17.5364 15.7071 17.1377 14.6517 17.1377 13.3325C17.1377 12.0132 17.5364 10.9578 18.4665 10.0343C19.3967 9.11082 20.4597 8.71504 21.7885 8.71504C22.9844 8.71504 24.0474 9.11082 24.9776 9.90237L26.1735 8.71504C24.9776 7.5277 23.5159 7 21.7885 7C20.5926 7 19.5295 7.26385 18.4665 7.92348C17.4035 8.45119 16.6062 9.24274 16.0747 10.2982C15.5432 11.2216 15.1445 12.277 15.1445 13.4644C15.1445 14.6517 15.4103 15.7071 16.0747 16.6306C16.6062 17.5541 17.4035 18.3456 18.4665 19.0053C19.5295 19.533 20.5926 19.9288 21.7885 19.9288C23.5159 19.9288 24.9776 19.4011 26.1735 18.3456C27.1036 16.8945 27.6352 15.5752 27.6352 13.7282C27.6352 13.3325 27.6352 12.9367 27.6352 12.6728H21.6556Z" fill="white"/>
<path d="M32.42 11.3535C31.2241 11.3535 30.294 11.7493 29.4967 12.5409C28.6994 13.3324 28.3008 14.2559 28.3008 15.4432C28.3008 16.6306 28.6994 17.554 29.4967 18.3456C30.294 19.1372 31.2241 19.5329 32.42 19.5329C33.6159 19.5329 34.5461 19.1372 35.3434 18.3456C36.1406 17.554 36.5393 16.6306 36.5393 15.4432C36.5393 14.2559 36.1406 13.3324 35.3434 12.5409C34.679 11.7493 33.6159 11.3535 32.42 11.3535ZM34.1475 17.2902C33.7488 17.8179 33.0844 17.9498 32.5529 17.9498C31.8885 17.9498 31.357 17.686 30.8255 17.2902C30.4268 16.7625 30.1611 16.2348 30.1611 15.5752C30.1611 14.7836 30.4268 14.2559 30.8255 13.8601C31.2241 13.3324 31.8885 13.2005 32.5529 13.2005C33.2173 13.2005 33.7488 13.4643 34.2803 13.8601C34.679 14.2559 34.9447 14.9155 34.9447 15.5752C34.8119 16.2348 34.5461 16.7625 34.1475 17.2902Z" fill="white"/>
<path d="M57.5322 7.26392H55.6719V19.4011H57.5322V7.26392Z" fill="white"/>
<path d="M41.588 11.3535C40.3921 11.3535 39.4619 11.7493 38.6647 12.5409C37.8674 13.3324 37.4688 14.2559 37.4688 15.4432C37.4688 16.6306 37.8674 17.554 38.6647 18.3456C39.4619 19.1372 40.3921 19.5329 41.588 19.5329C42.7839 19.5329 43.7141 19.1372 44.5113 18.3456C45.3086 17.554 45.7072 16.6306 45.7072 15.4432C45.7072 14.2559 45.3086 13.3324 44.5113 12.5409C43.7141 11.7493 42.7839 11.3535 41.588 11.3535ZM43.1825 17.2902C42.7839 17.8179 42.1195 17.9498 41.588 17.9498C40.9236 17.9498 40.3921 17.686 39.8606 17.2902C39.4619 16.7625 39.1962 16.2348 39.1962 15.5752C39.1962 14.7836 39.4619 14.2559 39.8606 13.8601C40.2592 13.3324 40.9236 13.2005 41.588 13.2005C42.2524 13.2005 42.7839 13.4643 43.3154 13.8601C43.7141 14.2559 43.9798 14.9155 43.9798 15.5752C43.8469 16.2348 43.7141 16.7625 43.1825 17.2902Z" fill="white"/>
<path d="M62.5841 17.95C61.6539 17.95 60.9895 17.5542 60.5909 16.7626L66.1718 14.5199L66.0389 13.9922C65.9061 13.5964 65.6403 13.2006 65.5074 12.9368C65.2417 12.6729 64.9759 12.2772 64.7102 12.1452C64.1786 11.8814 63.9129 11.7494 63.5142 11.6175C63.1156 11.4856 62.717 11.4856 62.3183 11.4856C61.2553 11.4856 60.3251 11.8814 59.5279 12.6729C58.7306 13.4645 58.4648 14.388 58.4648 15.5753C58.4648 16.7626 58.8635 17.6861 59.6608 18.4777C60.458 19.2692 61.3882 19.665 62.5841 19.665C64.0458 19.665 65.2417 19.0054 66.0389 17.818L64.5773 16.8946C64.0458 17.6861 63.3814 17.95 62.5841 17.95ZM60.8567 13.7283C61.2553 13.2006 61.7868 12.9368 62.4512 12.9368C62.8498 12.9368 63.1156 13.0687 63.3814 13.2006C63.6471 13.3326 63.9129 13.5964 63.9129 13.8603L60.1923 15.4434C60.1923 14.6518 60.458 14.1241 60.8567 13.7283Z" fill="white"/>
<path d="M52.7492 12.277C52.2177 11.6174 51.4204 11.3535 50.4903 11.3535C49.4272 11.3535 48.4971 11.7493 47.6998 12.5409C46.9025 13.3324 46.5039 14.3878 46.5039 15.4432C46.5039 16.6306 46.9025 17.554 47.6998 18.3456C48.4971 19.1372 49.4272 19.5329 50.4903 19.5329C51.4204 19.5329 52.2177 19.2691 52.6163 18.6095V19.0052C52.6163 20.7203 51.8191 21.6438 50.3574 21.6438C49.8259 21.6438 49.4272 21.5118 49.1615 21.248C48.7628 20.9841 48.4971 20.5883 48.3642 20.1926L46.7697 20.8522C46.9025 21.248 47.1683 21.5118 47.4341 21.9076C47.6998 22.1715 47.9656 22.4353 48.2313 22.6992C48.4971 22.963 48.8957 23.0949 49.2944 23.2269C49.693 23.3588 50.0916 23.3588 50.4903 23.3588C51.6862 23.3588 52.7492 22.963 53.4136 22.3034C54.078 21.5118 54.4766 20.4564 54.4766 19.1372V11.6174H52.7492V12.277ZM52.2177 17.2902C51.8191 17.8179 51.2875 17.9498 50.6232 17.9498C49.9588 17.9498 49.4272 17.686 49.0286 17.2902C48.63 16.7625 48.3642 16.2348 48.3642 15.5752C48.3642 14.9155 48.63 14.2559 49.0286 13.8601C49.4272 13.3324 50.0916 13.0686 50.6232 13.0686C51.2875 13.0686 51.8191 13.3324 52.2177 13.7282C52.6163 14.2559 52.8821 14.7836 52.8821 15.5752C52.8821 16.2348 52.6163 16.7625 52.2177 17.2902Z" fill="white"/>
<rect width="3.02893" height="54" fill="white"/>
</svg>
