<svg width="179" height="24" viewBox="0 0 179 24" fill="none" xmlns="http://www.w3.org/2000/svg">
<path d="M6.89666 23.7124L0 6.93475H2.36855L8.63824 22.498H7.55846L14.0023 6.93475H16.127L22.5012 22.498H21.4214L27.7956 6.93475H30.0597L23.1282 23.7124H20.7945L14.6641 9.0759H15.3956L9.23038 23.7124H6.89666Z" fill="white"/>
<path d="M41.0406 23.8722C39.1365 23.8722 37.4646 23.51 36.0249 22.7856C34.5852 22.0399 33.459 21.028 32.6462 19.7497C31.8335 18.4501 31.4271 16.9694 31.4271 15.3076C31.4271 13.6458 31.8103 12.1758 32.5765 10.8975C33.3661 9.61917 34.4342 8.61784 35.7811 7.89348C37.1511 7.1478 38.6837 6.77497 40.3788 6.77497C42.0972 6.77497 43.6182 7.13715 44.9418 7.86152C46.2886 8.56458 47.3452 9.56591 48.1115 10.8655C48.8778 12.1438 49.2609 13.6245 49.2609 15.3076C49.2609 15.4141 49.2493 15.5313 49.2261 15.6591C49.2261 15.7656 49.2261 15.8828 49.2261 16.0107H33.308V14.3169H47.9025L46.9272 14.988C46.9272 13.7736 46.6369 12.6977 46.0564 11.7603C45.4991 10.8016 44.7328 10.0559 43.7575 9.5233C42.7822 8.99068 41.656 8.72437 40.3788 8.72437C39.1249 8.72437 37.9987 8.99068 37.0002 9.5233C36.0017 10.0559 35.2238 10.8016 34.6664 11.7603C34.1091 12.719 33.8305 13.8162 33.8305 15.0519V15.4035C33.8305 16.6818 34.1324 17.8109 34.7361 18.7909C35.3631 19.7497 36.2223 20.506 37.3136 21.0599C38.4283 21.5925 39.6938 21.8589 41.1103 21.8589C42.2249 21.8589 43.2582 21.6778 44.2103 21.3156C45.1856 20.9534 46.0216 20.3995 46.7182 19.6538L48.1115 21.1238C47.2987 22.0186 46.277 22.7004 45.0463 23.1691C43.8388 23.6378 42.5036 23.8722 41.0406 23.8722Z" fill="white"/>
<path d="M63.734 23.8722C62.1317 23.8722 60.692 23.5419 59.4149 22.8815C58.1377 22.1997 57.1276 21.2197 56.3845 19.9414C55.6414 18.6631 55.2699 17.1185 55.2699 15.3076C55.2699 13.4754 55.6414 11.9308 56.3845 10.6738C57.1508 9.39547 58.1725 8.4261 59.4497 7.76565C60.7268 7.10519 62.1549 6.77497 63.734 6.77497C65.4756 6.77497 67.0314 7.13715 68.4014 7.86152C69.7947 8.56458 70.8861 9.55526 71.6756 10.8336C72.4651 12.1119 72.8599 13.6032 72.8599 15.3076C72.8599 16.9907 72.4651 18.482 71.6756 19.7816C70.8861 21.0599 69.7947 22.0613 68.4014 22.7856C67.0314 23.51 65.4756 23.8722 63.734 23.8722ZM54.2946 23.7124V0H56.7677V11.8881L56.4193 15.2756L56.6632 18.6631V23.7124H54.2946ZM63.5598 21.8589C64.8602 21.8589 66.0213 21.5925 67.043 21.0599C68.0647 20.506 68.8774 19.739 69.4812 18.759C70.0849 17.7577 70.3868 16.6072 70.3868 15.3076C70.3868 13.9867 70.0849 12.8362 69.4812 11.8562C68.8774 10.8762 68.0647 10.1198 67.043 9.58722C66.0213 9.03329 64.8602 8.75632 63.5598 8.75632C62.2594 8.75632 61.0868 9.03329 60.0418 9.58722C59.0201 10.1198 58.2074 10.8762 57.6036 11.8562C57.0231 12.8362 56.7328 13.9867 56.7328 15.3076C56.7328 16.6072 57.0231 17.7577 57.6036 18.759C58.2074 19.739 59.0201 20.506 60.0418 21.0599C61.0868 21.5925 62.2594 21.8589 63.5598 21.8589Z" fill="white"/>
<path d="M83.4394 24C81.8372 24 80.2697 23.8296 78.7372 23.4887C77.2278 23.1478 76.0087 22.7217 75.0798 22.2104L77.0652 18.0559C77.9476 18.5459 78.981 18.9401 80.1653 19.2383C81.3495 19.5153 82.5106 19.6538 83.6484 19.6538C84.763 19.6538 85.5293 19.5473 85.9473 19.3342C86.3885 19.1212 86.6091 18.8336 86.6091 18.4714C86.6091 18.1305 86.4001 17.8855 85.9821 17.7364C85.5874 17.5659 85.0533 17.4381 84.3799 17.3529C83.7297 17.2676 83.0098 17.1718 82.2203 17.0652C81.4308 16.9587 80.6297 16.8202 79.8169 16.6498C79.0274 16.4581 78.296 16.1811 77.6225 15.8189C76.9724 15.4354 76.4499 14.9241 76.0551 14.285C75.6604 13.6458 75.463 12.8362 75.463 11.8562C75.463 10.7483 75.8113 9.76831 76.5079 8.91611C77.2278 8.04261 78.2727 7.36085 79.6428 6.87084C81.0128 6.35952 82.6847 6.10386 84.6585 6.10386C85.9821 6.10386 87.3174 6.23169 88.6642 6.48735C90.0342 6.7217 91.1837 7.08389 92.1125 7.5739L90.1271 11.6964C89.1982 11.2064 88.2694 10.8762 87.3406 10.7057C86.4117 10.514 85.5293 10.4181 84.6934 10.4181C83.5788 10.4181 82.7892 10.5353 82.3248 10.7696C81.8836 11.004 81.663 11.2916 81.663 11.6325C81.663 11.9734 81.8604 12.2397 82.2551 12.4314C82.6499 12.6019 83.1724 12.7403 83.8226 12.8469C84.496 12.9321 85.2275 13.028 86.017 13.1345C86.8065 13.2197 87.596 13.3582 88.3855 13.5499C89.1982 13.7417 89.9297 14.0293 90.5799 14.4128C91.2533 14.775 91.7874 15.2756 92.1822 15.9148C92.5769 16.5326 92.7743 17.3316 92.7743 18.3116C92.7743 19.3768 92.4144 20.3356 91.6945 21.1877C90.9979 22.0399 89.9529 22.7217 88.5597 23.233C87.1896 23.7443 85.4829 24 83.4394 24Z" fill="white"/>
<path d="M107.922 6.10386C109.385 6.10386 110.708 6.38083 111.893 6.93475C113.077 7.46738 114.006 8.29827 114.679 9.42743C115.376 10.5566 115.724 12.016 115.724 13.8056V23.7124H109.106V14.7963C109.106 13.5606 108.827 12.6658 108.27 12.1119C107.736 11.5366 106.981 11.249 106.006 11.249C105.309 11.249 104.671 11.3981 104.09 11.6964C103.51 11.9734 103.057 12.4101 102.732 13.0067C102.407 13.6032 102.244 14.3808 102.244 15.3395V23.7124H95.6261V0H102.244V11.3129L100.712 9.87483C101.431 8.61784 102.418 7.68043 103.672 7.06258C104.926 6.42344 106.343 6.10386 107.922 6.10386Z" fill="white"/>
<path d="M131.408 23.7124V20.4847L130.955 19.6858V13.7417C130.955 12.783 130.63 12.0479 129.98 11.5366C129.353 11.004 128.343 10.7377 126.95 10.7377C126.044 10.7377 125.127 10.8762 124.198 11.1531C123.269 11.4088 122.48 11.771 121.83 12.2397L119.6 8.11718C120.669 7.47803 121.946 6.98802 123.432 6.64714C124.941 6.28495 126.439 6.10386 127.925 6.10386C130.99 6.10386 133.359 6.75366 135.031 8.05326C136.726 9.33156 137.573 11.3449 137.573 14.0932V23.7124H131.408ZM125.835 24C124.326 24 123.049 23.7656 122.004 23.2969C120.959 22.8282 120.158 22.1891 119.6 21.3795C119.066 20.5699 118.799 19.6644 118.799 18.6631C118.799 17.5979 119.09 16.6818 119.67 15.9148C120.274 15.1265 121.191 14.53 122.422 14.1252C123.652 13.6991 125.243 13.486 127.194 13.486H131.652V16.6498H128.099C127.031 16.6498 126.276 16.8096 125.835 17.1292C125.417 17.4487 125.208 17.8748 125.208 18.4075C125.208 18.9401 125.429 19.3662 125.87 19.6858C126.311 20.0053 126.915 20.1651 127.681 20.1651C128.401 20.1651 129.051 20.0053 129.632 19.6858C130.236 19.3449 130.677 18.8336 130.955 18.1518L131.861 20.3888C131.513 21.5819 130.828 22.4874 129.806 23.1052C128.808 23.7017 127.484 24 125.835 24Z" fill="white"/>
<path d="M141.751 23.7124V6.39148H148.055V11.4407L147.115 10.0027C147.672 8.70306 148.578 7.73369 149.832 7.09454C151.086 6.43409 152.607 6.10386 154.395 6.10386V11.5686C154.093 11.526 153.826 11.5047 153.594 11.5047C153.385 11.4834 153.152 11.4727 152.897 11.4727C151.55 11.4727 150.459 11.8136 149.623 12.4953C148.787 13.1558 148.369 14.2423 148.369 15.755V23.7124H141.751Z" fill="white"/>
<path d="M162.629 20.5166L162.803 13.2623L170.501 6.39148H178.338L169.804 14.4767L166.426 16.9694L162.629 20.5166ZM157.126 23.7124V0H163.744V23.7124H157.126ZM170.989 23.7124L165.207 17.0652L169.317 12.3995L179 23.7124H170.989Z" fill="white"/>
</svg>
