<svg width="114" height="28" viewBox="0 0 114 28" fill="none" xmlns="http://www.w3.org/2000/svg">
<path fill-rule="evenodd" clip-rule="evenodd" d="M21.244 7.75934C19.3835 8.41257 18.2575 10.8061 18.9984 12.5327C19.4682 13.6266 20.2188 14.0402 23.4097 14.962C26.4974 15.8535 27.143 16.9232 25.6228 18.6287C24.0341 20.4112 20.8859 19.3835 19.7467 16.7103C19.4192 15.9412 19.0422 15.3116 18.9095 15.311C18.7768 15.3103 18.668 16.4285 18.668 17.7958C18.668 20.3205 18.9208 20.7708 19.7197 19.6701C20.1251 19.1113 20.2239 19.0992 20.8595 19.5287C22.048 20.3323 24.4669 20.415 25.6557 19.6924C27.0335 18.8559 27.8018 17.3741 27.5706 15.9999C27.2657 14.185 26.3467 13.5806 22.305 12.5355C20.6737 12.1138 19.956 11.4829 19.956 10.4708C19.956 9.32436 21.0353 8.47286 22.4885 8.47286C24.0525 8.47286 25.1904 9.30695 25.873 10.9531C26.6429 12.8105 27.0399 12.4954 27.0399 10.0267C27.0399 7.82895 26.7228 7.34944 25.835 8.20622C25.5597 8.47193 25.1885 8.43308 24.3535 8.05084C23.2407 7.54118 22.1549 7.43925 21.244 7.75934ZM31.6493 7.99552C30.4277 8.50829 29.6159 9.88063 29.6159 11.4335C29.6159 13.0999 30.8508 14.1356 33.6409 14.8103C36.1753 15.4228 37.0219 15.9931 37.0219 17.0876C37.0219 18.8577 35.3935 19.8627 33.3904 19.3292C32.0834 18.9808 31.1106 18.0385 30.4264 16.4583C30.1472 15.8128 29.7779 15.3684 29.6063 15.471C29.2192 15.7019 29.1893 19.8721 29.5728 20.1008C29.7264 20.1925 30.0944 20.0088 30.3907 19.6927C30.9145 19.134 30.9616 19.1343 32.1117 19.7002C35.2348 21.2369 38.3099 19.5218 38.3099 16.2432C38.3099 14.4946 37.3912 13.6894 34.5956 12.9867C31.5202 12.2139 30.9039 11.8043 30.9039 10.5339C30.9039 7.46101 35.5523 7.93461 36.7495 11.1296C37.3664 12.7767 37.6659 12.4162 37.6659 10.0267C37.6659 8.37435 37.558 7.85133 37.2173 7.85133C36.9707 7.85133 36.6896 8.05022 36.593 8.29355C36.4465 8.66212 36.214 8.63601 35.2023 8.13816C33.7784 7.43739 33.0484 7.40818 31.6493 7.99552ZM48.4528 8.12791C47.7444 8.44334 46.8457 9.03659 46.4558 9.44618C44.0582 11.9631 44.2655 16.4863 46.8863 18.8459C48.7529 20.5259 51.657 20.6785 53.2119 19.1778L54.0182 18.3997L54.3582 19.3407C54.9507 20.9809 55.3458 20.3898 55.4434 17.7181C55.5303 15.3277 55.5857 15.1475 56.2612 15.0549C56.6599 15.0005 56.9857 14.8255 56.9857 14.6664C56.9857 14.5076 55.7541 14.3774 54.2487 14.3774C52.7434 14.3774 51.5118 14.5079 51.5118 14.6677C51.5118 14.8271 51.9104 15.002 52.3973 15.0561C53.1816 15.1431 53.2937 15.2979 53.3787 16.4142C53.5252 18.3387 52.5608 19.3497 50.5786 19.3497C48.0403 19.3497 46.997 17.7144 47.0109 13.7581C47.0189 11.4947 47.83 9.35481 48.8872 8.8088C49.9137 8.27863 51.6692 8.41381 52.5624 9.09191C53.011 9.4325 53.6463 10.3409 53.9744 11.1106C54.3022 11.8807 54.6854 12.511 54.8258 12.5116C55.2411 12.5134 54.9414 7.76121 54.5176 7.62602C54.3112 7.56014 54.051 7.7842 53.9393 8.12356C53.7384 8.73483 53.7236 8.73483 52.3828 8.14749C50.6961 7.40849 50.0747 7.40538 48.4528 8.12791ZM74.1994 8.1248C70.2285 9.8654 69.2651 15.1549 72.3234 18.422C74.2683 20.4998 77.0394 20.819 79.4982 19.2487C80.9575 18.3167 81.8446 16.6525 82.0349 14.4899C82.2867 11.6259 80.9198 9.22429 78.4118 8.1248C76.7725 7.406 75.8387 7.406 74.1994 8.1248ZM6.11011 8.16209C6.11011 8.33301 6.37093 8.47286 6.6897 8.47286C7.89076 8.47286 8.0421 9.0686 8.0421 13.7925C8.0421 16.3082 7.95419 18.5877 7.84664 18.858C7.7391 19.1284 7.3044 19.3497 6.88065 19.3497C6.4569 19.3497 6.11011 19.4895 6.11011 19.6604C6.11011 19.8547 8.0305 19.9712 11.2276 19.9712C17.0567 19.9712 16.736 20.1356 16.736 17.1488C16.736 15.0595 16.2759 14.7391 15.7881 16.4884C15.1846 18.6508 13.8706 19.4895 11.3925 19.2937L10.1351 19.1943L10.0417 16.6305C9.94961 14.1105 9.9612 14.0666 10.7163 14.0666C11.566 14.0666 12.4222 14.8327 12.5974 15.7501C12.6599 16.0779 12.8923 16.4042 13.1136 16.4751C13.4159 16.5723 13.5161 15.8967 13.5161 13.7559C13.5161 11.615 13.4159 10.9394 13.1136 11.0367C12.8923 11.1075 12.6599 11.4338 12.5974 11.7617C12.4222 12.6794 11.566 13.4451 10.7156 13.4451C9.96346 13.4451 9.94896 13.3935 10.0411 11.0367L10.1351 8.62824L11.9605 8.63477C14.132 8.64285 14.9605 9.21186 15.4728 11.0479C16.0022 12.9448 16.5348 12.0588 16.2566 9.7442L16.0289 7.85133H11.0695C7.97802 7.85133 6.11011 7.96849 6.11011 8.16209ZM57.6297 8.12325C57.6297 8.27273 58.068 8.4797 58.6034 8.58318L59.5775 8.77119L59.4007 19.1943L58.5152 19.2925C58.0283 19.3466 57.6297 19.5215 57.6297 19.6809C57.6297 19.8407 58.9338 19.9712 60.5277 19.9712C62.1216 19.9712 63.4257 19.8407 63.4257 19.6809C63.4257 19.5215 63.027 19.3466 62.5402 19.2925C61.6627 19.1952 61.6537 19.171 61.5613 16.6305L61.4676 14.0666H62.4613C63.9647 14.0666 64.9024 15.164 65.1709 17.238C65.4172 19.1418 65.8081 19.8071 66.8556 20.1064C68.0682 20.4532 70.1947 17.8962 69.0606 17.4549C68.8835 17.3859 68.6913 17.6526 68.6333 18.0469C68.4318 19.4187 67.5173 18.6756 66.8945 16.6342C66.4473 15.1683 66.0953 14.5925 65.4468 14.2646L64.59 13.8314L65.5776 13.6222C67.0037 13.3199 67.998 12.1685 67.998 10.8198C67.998 8.48809 66.6064 7.85133 61.5098 7.85133C59.3756 7.85133 57.6297 7.97377 57.6297 8.12325ZM83.3895 8.12325C83.3895 8.27273 83.8242 8.47907 84.3555 8.58163L85.3215 8.76809L85.3263 13.0489C85.3292 15.8274 85.4706 17.592 85.7288 18.0768C86.8078 20.103 89.9914 20.8637 92.4959 19.6934C94.491 18.7614 94.7625 18.0298 94.9154 13.1732L95.0465 9.0167L95.9799 8.67672C97.5452 8.10647 97.0374 7.85133 94.3374 7.85133C91.6204 7.85133 91.1297 8.10647 92.7274 8.68853L93.6934 9.04032V13.1937C93.6934 17.9149 93.4793 18.4857 91.4929 19.06C89.9225 19.5141 88.0446 18.8313 87.5735 17.6352C87.3974 17.1886 87.2535 15.0108 87.2535 12.7956V8.76809L88.2195 8.58163C90.109 8.21679 89.142 7.85133 86.2875 7.85133C84.6936 7.85133 83.3895 7.97377 83.3895 8.12325ZM97.5574 8.14158C97.5574 8.30101 97.956 8.47597 98.4429 8.53004L99.3284 8.62824V19.1943L98.4429 19.2925C97.956 19.3466 97.5574 19.5215 97.5574 19.6809C97.5574 19.8407 98.9339 19.9712 100.616 19.9712C102.303 19.9712 103.675 19.8407 103.675 19.68C103.675 19.52 103.205 19.3453 102.629 19.2916L101.582 19.1943L101.393 14.6882H102.808C106.722 14.6882 108.891 12.5747 107.73 9.89244C107.015 8.24134 105.781 7.85133 101.271 7.85133C99.1861 7.85133 97.5574 7.97843 97.5574 8.14158ZM65.5992 9.33026C65.8207 9.60778 66.0016 10.3458 66.0016 10.9702C66.0016 12.4777 65.15 13.185 63.1069 13.3746L61.4937 13.524V11.3714C61.4937 10.0665 61.6521 9.06363 61.8962 8.82496C62.4346 8.29821 65.0617 8.65683 65.5992 9.33026ZM78.3441 9.10837C79.3871 9.90052 79.8434 11.4332 79.8456 14.1543C79.8488 17.6454 78.6156 19.4911 76.2798 19.4911C73.9981 19.4911 72.7868 17.5637 72.7729 13.9113C72.7652 11.8279 73.2971 10.105 74.2245 9.21C75.2121 8.25688 77.1589 8.20871 78.3441 9.10837ZM104.743 8.83024C105.739 9.33617 105.919 9.69541 105.924 11.1921C105.931 13.0436 105.128 13.7559 103.031 13.7559H101.421V11.606C101.421 10.4235 101.509 9.23486 101.617 8.96449C101.85 8.37745 103.696 8.29821 104.743 8.83024Z" fill="white"/>
<path d="M0 0H0.682635V28H0V0Z" fill="white"/>
<path d="M113.317 0H114V28H113.317V0Z" fill="white"/>
</svg>
