<svg width="24" height="32" viewBox="0 0 24 32" fill="none" xmlns="http://www.w3.org/2000/svg">
<g clip-path="url(#clip0_814_3723)">
<path d="M7.00625 27.6805C7.00625 28.06 7.11975 28.4302 7.3365 28.7466L8.40775 30.2949C8.73588 30.7695 9.48088 31.1555 10.0728 31.1555H13.9271C14.517 31.1555 15.2621 30.7697 15.5903 30.2949L16.6577 28.7472C16.8414 28.4798 16.992 28.0017 16.992 27.6805L17 25.3181H7L7.00625 27.6805ZM12 0.301758C5.62625 0.321043 1 5.30201 1 10.8543C1 13.5289 2.0275 15.9673 3.7225 17.8331C4.75563 18.9685 6.36875 21.3424 6.98625 23.3444C6.98819 23.3595 6.99213 23.3756 6.99406 23.3915H17.0066C17.0085 23.3756 17.0124 23.3604 17.0144 23.3444C17.6316 21.3424 19.245 18.9685 20.2781 17.8331C21.975 16.0191 23 13.5843 23 10.8543C23 5.05071 18.075 0.301999 12 0.301758ZM18.025 15.9769C17.0462 17.0526 15.835 18.7672 14.9594 20.5505H9.04625C8.17063 18.7672 6.95937 17.0526 5.98125 15.9775C4.7025 14.5727 4 12.7225 4 10.8543C4 7.12988 7.00625 3.20958 11.9438 3.19452C16.4125 3.19452 20 6.65378 20 10.8543C20 12.7225 19.3 14.5727 18.025 15.9769ZM11 5.12302C8.24375 5.12302 6 7.28657 6 9.94429C6 10.4773 6.44725 10.9085 7 10.9085C7.55275 10.9085 8 10.4746 8 9.94429C8 8.34906 9.34562 7.05153 11 7.05153C11.5527 7.05153 12 6.62075 12 6.08788C12 5.55501 11.55 5.12302 11 5.12302Z" fill="#F60400"/>
</g>
<defs>
<clipPath id="clip0_814_3723">
<rect width="24" height="30.8561" fill="white" transform="translate(0 0.301758)"/>
</clipPath>
</defs>
</svg>
