<svg width="47" height="47" viewBox="0 0 47 47" fill="none" xmlns="http://www.w3.org/2000/svg">
<path d="M14.0666 17.9624L11.2975 15.1914L2.98828 23.5006L11.2975 31.8098L14.0666 29.0388L8.52645 23.5006L14.0666 17.9624ZM32.9371 29.0388L35.7062 31.8098L44.0154 23.5006L35.7062 15.1914L32.9371 17.9624L38.4752 23.5006L32.9371 29.0388Z" fill="white"/>
<path fill-rule="evenodd" clip-rule="evenodd" d="M29.375 23.5C29.375 25.0581 28.756 26.5525 27.6543 27.6543C26.5525 28.756 25.0581 29.375 23.5 29.375C21.9419 29.375 20.4475 28.756 19.3457 27.6543C18.244 26.5525 17.625 25.0581 17.625 23.5C17.625 21.9419 18.244 20.4475 19.3457 19.3457C20.4475 18.244 21.9419 17.625 23.5 17.625C25.0581 17.625 26.5525 18.244 27.6543 19.3457C28.756 20.4475 29.375 21.9419 29.375 23.5ZM25.4583 23.5C25.4583 24.0194 25.252 24.5175 24.8848 24.8848C24.5175 25.252 24.0194 25.4583 23.5 25.4583C22.9806 25.4583 22.4825 25.252 22.1152 24.8848C21.748 24.5175 21.5417 24.0194 21.5417 23.5C21.5417 22.9806 21.748 22.4825 22.1152 22.1152C22.4825 21.748 22.9806 21.5417 23.5 21.5417C24.0194 21.5417 24.5175 21.748 24.8848 22.1152C25.252 22.4825 25.4583 22.9806 25.4583 23.5Z" fill="white"/>
</svg>
